<ttFont>
<head>
    <!-- Most of this table will be recalculated by the compiler -->
    <tableVersion value="1.0"/>
    <fontRevision value="0.0"/>
    <checkSumAdjustment value="0x46a318a4"/>
    <magicNumber value="0x5f0f3cf5"/>
    <flags value="00000000 00000011"/>
    <unitsPerEm value="2048"/>
    <created value="Thu May  4 15:28:31 2017"/>
    <modified value="Thu May  4 22:28:35 2017"/>
    <xMin value="-154"/>
    <yMin value="-840"/>
    <xMax value="1420"/>
    <yMax value="2301"/>
<macStyle value="00000000 00000000"/>
    <lowestRecPPEM value="3"/>
    <fontDirectionHint value="2"/>
    <indexToLocFormat value="0"/>
    <glyphDataFormat value="0"/>
  </head>
          <CharString index="0">
            633 -20 rmoveto
            287 183 187 293 hvcurveto
            130 callgsubr
            -76 callsubr
            vhcurveto
            974 vmoveto
            186 116 -132 -213 hvcurveto
            -133 vlineto
            -214 -116 -131 127 callgsubr
            131 214 229 callgsubr
            213 116 132 186 vhcurveto
            return
          </CharString>
          <CharString index="1">
            645 959 rmoveto
            175 106 -125 -207 hvcurveto
            -571 hlineto
            208 109 124 181 vhcurveto
            281 -679 rmoveto
            -95 -30 -101 -58 -137 hhcurveto
            -185 -118 128 199 hvcurveto
            44 739 106 vlineto
            314 -166 187 -282 -276 -183 -188 -286 vhcurveto
            -163 vlineto
            -309 173 -179 298 228 172 121 179 33 vhcurveto
            return
          </CharString>
          <CharString index="2">
            rmoveto
            -170 -639 hlineto
            -185 -120 -125 -179 -169 -80 92 196 vhcurveto
            661 -170 -704 vlineto
            -260 128 -141 236 165 124 76 135 136 callgsubr
            hlineto
            return
          </CharString>
          <CharString index="3">
            138 -31 53 -46 -86 vvcurveto
            -104 -94 -67 -148 -140 -96 58 100 -25 vhcurveto
            -173 hlineto
            -186 19 163 -115 246 hhcurveto
            257 167 130 200 157 -96 92 -211 48 hvcurveto
            -153 35 rlineto
            -136 30 -56 47 83 vvcurveto
            99 89 64 138 127 91 -58 -95 20 vhcurveto
            164 hlineto
            181 -20 -153 113 -226 hhcurveto
            -239 -160 -126 -188 return
          </CharString>
          <CharString index="4">
            329 -386 rmoveto
            201 91 79 267 95 hvcurveto
            409 1125 rlineto
            -181 hlineto
            -303 -908 rlineto
            -13 hlineto
            -304 908 rlineto
            -185 hlineto
            399 -1092 -19 -59 rlineto
            -126 -45 -56 -46 -102 hhcurveto
            -16 -31 1 3 -13 hvcurveto
            -149 vlineto
            -2 15 33 -1 25 hhcurveto
            return
          </CharString>
          <CharString index="5">
            rmoveto
            -128 vlineto
            -145 -125 -109 -164 -137 -85 70 114 113 80 65 152 7 vhcurveto
            286 -337 rmoveto
            -163 162 743 vlineto
            226 -146 130 -255 -222 -168 -119 -174 -20 vhcurveto
            167 hlineto
            93 28 88 53 125 hhcurveto
            151 83 -75 -136 hvcurveto
            -98 vlineto
            -298 -15 rlineto
            -247 -13 -138 -114 -192 vvcurveto
            -197 138 -130 207 158 118 65 116 52 vhcurveto
            endchar
          </CharString>
          <CharString index="6">
            -59 callgsubr
            58 -68 -68 -58 -58 -60 callsubr
            return
          </CharString>
          <CharString index="7">
            91 callgsubr
            75 callsubr
            hvcurveto
            return
          </CharString>
          <CharString index="8">
            rmoveto
            301 132 168 219 219 132 -168 -301 221 callgsubr
            27 callsubr
            880 232 rmoveto
            399 -201 236 -328 -328 -201 -236 -399 vhcurveto
            -233 vlineto
            9 callgsubr
            endchar
          </CharString>
          <CharString index="9">
            rmoveto
            277 -405 -136 241 -813 -219 -136 721 136 -336 350 vlineto
            276 142 166 240 59 70 -12 -18 50 vhcurveto
            191 vlineto
            15 -36 -59 9 -62 hhcurveto
            -209 -135 -104 -201 -40 hvcurveto
            endchar
          </CharString>
          <CharString index="10">
            660 hmoveto
            310 184 150 253 193 -127 141 -194 19 hvcurveto
            15 vlineto
            145 25 103 131 159 vvcurveto
            224 -160 133 -266 vhcurveto
            -467 79 callsubr
            175 1291 rmoveto
            252 hlineto
            184 104 -85 -151 -152 -110 -83 -205 hvcurveto
            -225 hlineto
            -667 vmoveto
            520 253 vlineto
            234 121 -88 -170 -172 -120 -90 -229 hvcurveto
            return
          </CharString>
          <CharString index="11">
            rmoveto
            200 115 128 179 178 115 53 callgsubr
            -156 vlineto
            -201 -115 -128 -178 -179 -115 196 callgsubr
            588 -300 rmoveto
            -166 167 1511 -173 -594 -18 vlineto
            119 -47 -116 67 -157 hhcurveto
            -251 -164 -181 -278 hvcurveto
            -202 vlineto
            -279 164 -181 251 155 114 64 120 56 vhcurveto
            endchar
          </CharString>
          <CharString index="12">
            186 116 -133 -212 hvcurveto
            -133 vlineto
            -213 -116 -132 127 callgsubr
            132 213 229 callgsubr
            212 116 133 186 vhcurveto
            470 -494 rmoveto
            159 vlineto
            151 -53 119 -92 61 vhcurveto
            8 60 vlineto
            100 60 61 104 hvcurveto
            185 -148 -135 vlineto
            -71 -29 -24 -85 vhcurveto
            -112 -44 26 -127 hhcurveto
            -287 -183 -187 -293 hvcurveto
            -8 callgsubr
            endchar
          </CharString>
          <CharString index="13">
            rmoveto
            -19 callsubr
            55 -63 -70 callgsubr
            -63 -54 -55 33 callgsubr
            endchar
          </CharString>
          <CharString index="14">
            -95 callgsubr
            -394 197 -229 339 295 202 189 279 vhcurveto
            -178 hlineto
            -186 -5 -122 185 callgsubr
            hhcurveto
            return
          </CharString>
          <CharString index="15">
            1219 1085 -89 callgsubr
            return
          </CharString>
          <CharString index="16">
            157 -292 1129 292 157 -760 -157 292 -1129 -292 -157 vlineto
            return
          </CharString>
          <CharString index="17">
            rmoveto
            117 29 102 86 160 hhcurveto
            184 125 -122 -203 16 hvcurveto
            -498 -136 500 hlineto
            -222 -11 -123 -136 -193 hhcurveto
            -159 -102 75 120 -30 hvcurveto
            -166 hlineto
            -208 31 163 -141 265 hhcurveto
            308 188 213 355 346 -188 212 -308 -264 -165 -151 -205 -31 hvcurveto
            endchar
          </CharString>
          <CharString index="18">
            170 638 hlineto
            -82 callgsubr
            -14 618 -164 hlineto
            return
          </CharString>
          <CharString index="19">
            rmoveto
            223 -28 -164 136 -240 hhcurveto
            -295 -172 -181 -311 hvcurveto
            -142 vlineto
            -311 172 -181 295 240 165 135 221 27 vhcurveto
            -168 hlineto
            -124 -21 -106 -79 -140 hhcurveto
            -189 -105 128 233 hvcurveto
            98 vlineto
            233 105 129 189 140 106 -80 -127 21 vhcurveto
            return
          </CharString>
          <CharString index="20">
            rmoveto
            50 callsubr
            -614 vlineto
            -226 125 -102 269 52 132 5 5 27 vhcurveto
            144 vlineto
            -3 -29 -109 -3 -61 hhcurveto
            -153 -83 64 118 hvcurveto
            612 438 107 callgsubr
            vlineto
            return
          </CharString>
          <CharString index="21">
            rmoveto
            702 -48 hlineto
            27 callsubr
            702 205 rmoveto
            -702 26 hlineto
            301 132 168 219 219 132 -168 -301 vhcurveto
            -880 -232 rmoveto
            9 callgsubr
            -9 callsubr
            endchar
          </CharString>
          <CharString index="22">
            rmoveto
            604 -5 hlineto
            -214 -116 -131 127 callgsubr
            131 214 vhcurveto
            143 vmoveto
            207 4 115 128 183 hhcurveto
            183 115 -128 -207 4 hvcurveto
            -772 -159 rmoveto
            -76 callsubr
            -78 callsubr
            vhcurveto
            164 vlineto
            293 -183 187 -287 -287 -18 callsubr
            -293 vhcurveto
            endchar
          </CharString>
          <CharString index="23">
            rmoveto
            330 199 239 396 hvcurveto
            233 vlineto
            216 -63 166 -106 76 vhcurveto
            11 70 vlineto
            132 73 65 117 hvcurveto
            187 -147 -139 vlineto
            -76 -35 -27 -100 vhcurveto
            -145 -76 39 -132 hhcurveto
            -330 -199 -239 -396 hvcurveto
            -233 vlineto
            -396 199 -239 330 vhcurveto
            167 vmoveto
            -222 -129 171 298 229 callsubr
            298 129 171 222 222 129 -171 -298 221 callgsubr
            -298 -129 -171 -222 vhcurveto
            return
          </CharString>
          <CharString index="24">
            rmoveto
            -162 -94 149 262 263 94 148 162 162 94 -148 -263 -262 -94 -149 -162 hvcurveto
            -597 500 rmoveto
            454 -154 -1085 154 486 183 vlineto
            -312 16 152 -194 247 hhcurveto
            263 154 205 357 357 -154 206 -263 -237 -151 -181 -293 -24 hvcurveto
            endchar
          </CharString>
          <CharString index="25">
            131 callsubr
            -61 vhcurveto
            -85 65 callgsubr
            return
          </CharString>
          <CharString index="26">
            rmoveto
            -185 hlineto
            -364 -914 rlineto
            -15 hlineto
            -379 914 rlineto
            -190 hlineto
            483 -1110 rlineto
            -127 -67 -71 -52 -97 hhcurveto
            -31 -25 4 5 -20 230 callgsubr
            -6 12 38 -7 36 hhcurveto
            201 106 112 301 129 hvcurveto
            return
          </CharString>
          <CharString index="27">
            -90 callgsubr
            endchar
          </CharString>
          <CharString index="28">
            116 26 83 97 109 vvcurveto
            181 -154 114 -243 -234 -157 -117 -198 -26 vhcurveto
            165 hlineto
            107 20 94 62 138 hhcurveto
            143 87 -63 -103 -103 -87 -62 -143 hvcurveto
            -153 -136 152 hlineto
            175 95 -63 -116 -112 -106 -75 -161 -145 -98 62 111 -26 hvcurveto
            -169 hlineto
            return
          </CharString>
          <CharString index="29">
            287 183 187 293 return
          </CharString>
          <CharString index="30">
            257 553 rmoveto
            -10 585 rlineto
            13 hlineto
            304 -799 rlineto
            138 hlineto
            304 799 rlineto
            13 hlineto
            -10 -585 rlineto
            -553 158 1443 -195 vlineto
            -332 -893 rlineto
            -13 hlineto
            -333 893 rlineto
            -195 -65 callgsubr
            158 hlineto
            return
          </CharString>
          <CharString index="31">
            -293 183 -187 287 return
          </CharString>
          <CharString index="32">
            rmoveto
            226 callgsubr
            134 126 185 vhcurveto
            -144 hlineto
            -116 -1 -77 -81 -109 hhcurveto
            -109 -77 81 116 -1 hvcurveto
            return
          </CharString>
          <CharString index="33">
            rmoveto
            -180 hlineto
            -282 -235 -63 callgsubr
            171 146 rlineto
            14 hlineto
            171 -146 -63 callgsubr
            return
          </CharString>
          <CharString index="34">
            rmoveto
            -274 -11 callgsubr
            173 191 callgsubr
            -274 341 rlineto
            return
          </CharString>
          <CharString index="35">
            rmoveto
            -95 callgsubr
            -366 170 -223 295 -30 vhcurveto
            -50 -124 rlineto
            18 callgsubr
            51 hhcurveto
            144 115 callsubr
            42 105 rlineto
            262 24 174 182 259 vvcurveto
            20 callgsubr
          </CharString>
          <CharString index="36">
            rmoveto
            127 87 196 callsubr
            -123 hlineto
            -95 -4 -37 -50 -58 -92 -33 157 -163 hhcurveto
            -129 -85 -102 -168 hvcurveto
            124 hlineto
            98 3 35 48 60 104 28 -156 156 hhcurveto
            return
          </CharString>
          <CharString index="37">
            -65 -69 callgsubr
            65 return
          </CharString>
          <CharString index="38">
            328 201 236 399 return
          </CharString>
          <CharString index="39">
            227 143 141 225 226 -143 141 -227 hvcurveto
            -200 352 -159 -1085 hlineto
            159 145 rmoveto
            443 196 vlineto
            131 84 -88 -134 -134 -84 -87 -131 hvcurveto
            669 -145 rmoveto
            1085 -162 231 callgsubr
          </CharString>
          <CharString index="40">
            198 219 callgsubr
            177 518 299 vlineto
            282 185 183 279 280 -183 183 -280 hvcurveto
            -303 -157 rmoveto
            259 hlineto
            210 118 -109 -197 -196 -118 -109 -210 hvcurveto
            -259 hlineto
            return
          </CharString>
          <CharString index="41">
            rmoveto
            -176 -942 hlineto
            -332 190 -199 318 318 190 199 332 vhcurveto
            942 -176 -931 vlineto
            -237 -122 -138 -210 -210 -122 138 237 vhcurveto
            endchar
          </CharString>
          <CharString index="42">
            1296 rmoveto
            265 66 callgsubr
            -239 -339 rlineto
            return
          </CharString>
          <CharString index="43">
            rmoveto
            110 hlineto
            198 119 -111 -184 -183 -120 -112 -199 hvcurveto
            -108 hlineto
            136 -159 rmoveto
            276 183 179 274 276 -180 178 -276 hvcurveto
            -137 536 -165 79 callsubr
            1054 hmoveto
            1443 -164 184 callsubr
          </CharString>
          <CharString index="44">
            71 hmoveto
            183 hlineto
            367 573 rlineto
            7 hlineto
            364 -573 rlineto
            196 hlineto
            -457 720 464 723 rlineto
            -186 hlineto
            -365 -580 rlineto
            -8 hlineto
            -362 580 rlineto
            -200 hlineto
            455 -718 rlineto
            return
          </CharString>
          <CharString index="45">
            994 162 -768 14 hlineto
            755 1137 rlineto
            130 -956 -162 732 -14 vlineto
            -757 -1138 rlineto
            return
          </CharString>
          <CharString index="46">
            371 535 rlineto
            -191 hlineto
            -269 -411 rlineto
            -14 hlineto
            -270 411 rlineto
            -201 hlineto
            375 -542 -372 -543 rlineto
            188 hlineto
            274 418 rlineto
            return
          </CharString>
          <CharString index="47">
            -70 -50 callgsubr
            return
          </CharString>
          <CharString index="48">
            rmoveto
            63 54 56 65 66 -54 56 -63 -62 -55 -56 -81 callgsubr
            56 -62 -63 -54 -56 33 callgsubr
            endchar
          </CharString>
          <CharString index="49">
            1443 -175 -625 -610 625 -175 -65 callgsubr
            175 656 610 -656 vlineto
            return
          </CharString>
          <CharString index="50">
            rmoveto
            13 25 42 9 43 hhcurveto
            63 40 -31 -44 -43 -41 -42 -60 -21 hvcurveto
            67 -86 rlineto
            99 38 64 79 89 vvcurveto
            109 -83 68 -126 -49 -53 -11 -14 -31 vhcurveto
            return
          </CharString>
          <CharString index="51">
            636 126 rmoveto
            -176 -105 125 206 hvcurveto
            570 hlineto
            -207 -108 -124 -181 vhcurveto
            -281 679 rmoveto
            95 29 102 58 137 hhcurveto
            184 118 -128 -199 hvcurveto
            -45 -739 -106 vlineto
            -314 167 -186 282 276 182 188 286 vhcurveto
            163 vlineto
            309 -172 179 -299 -227 -172 -121 -179 -33 vhcurveto
            return
          </CharString>
          <CharString index="52">
            -101 callgsubr
            endchar
          </CharString>
          <CharString index="53">
            1919 rmoveto
            -179 -37 callgsubr
            160 hlineto
            return
          </CharString>
          <CharString index="54">
            rmoveto
            197 687 rlineto
            92 -687 hlineto
            591 693 rmoveto
            161 -797 vlineto
            -432 -65 callgsubr
            rlineto
            181 hlineto
            124 435 rlineto
            333 -435 591 162 -430 487 394 157 -394 476 hlineto
            endchar
          </CharString>
          <CharString index="55">
            135 -139 221 221 135 139 return
          </CharString>
          <CharString index="56">
            -132 -168 -219 return
          </CharString>
          <CharString index="57">
            718 -65 callsubr
            588 -211 rmoveto
            -181 hlineto
            -303 -908 rlineto
            -13 hlineto
            -304 908 rlineto
            -185 hlineto
            399 -1092 -19 -59 rlineto
            -126 -45 -56 -46 -102 hhcurveto
            -16 -31 1 3 -13 hvcurveto
            -149 vlineto
            -2 15 33 -1 25 hhcurveto
            201 91 79 267 95 hvcurveto
            endchar
          </CharString>
          <CharString index="58">
            844 146 -631 13 hlineto
            627 799 rlineto
            127 -837 -146 634 -13 vlineto
            -637 -806 rlineto
            return
          </CharString>
          <CharString index="59">
            rmoveto
            75 callgsubr
            179 9 callsubr
            return
          </CharString>
          <CharString index="60">
            -63 callgsubr
            -274 return
          </CharString>
          <CharString index="61">
            80 61 60 80 79 -61 60 -80 -80 -61 -60 -79 -80 61 -60 80 hvcurveto
            return
          </CharString>
          <CharString index="62">
            123 callgsubr
            -54 -56 33 callgsubr
            -404 47 callgsubr
            return
          </CharString>
          <CharString index="63">
            352 893 rmoveto
            379 252 112 -252 127 -164 -127 -163 -112 163 -1272 170 638 vlineto
            -82 callgsubr
            endchar
          </CharString>
          <CharString index="64">
            -13 callgsubr
            -208 759 -54 callgsubr
            125 -414 rlineto
            endchar
          </CharString>
          <CharString index="65">
            45 callsubr
            vhcurveto
            -49 -156 rmoveto
            76 callgsubr
            hvcurveto
            -156 vlineto
            -200 -114 -129 -179 -179 106 callsubr
            vhcurveto
            156 vlineto
            200 114 128 179 vhcurveto
            return
          </CharString>
          <CharString index="66">
            rmoveto
            -222 -129 172 297 229 callsubr
            297 129 172 222 222 129 -172 -297 221 callgsubr
            -297 -129 -172 -222 vhcurveto
            195 -565 rmoveto
            40 40 7 10 27 hvcurveto
            120 vlineto
            -5 -16 -24 -2 -29 hhcurveto
            -71 -51 43 64 77 38 50 146 112 hvcurveto
            167 131 67 161 265 vvcurveto
            233 vlineto
            395 -198 240 -331 -331 -198 -240 -395 vhcurveto
            -233 vlineto
            -385 194 -246 306 51 50 10 16 29 vhcurveto
            -15 vlineto
            -97 -64 -43 -65 -87 vvcurveto
            -116 97 -81 137 vhcurveto
            endchar
          </CharString>
          <CharString index="67">
            rmoveto
            -67 -51 53 69 69 51 53 67 183 callgsubr
            102 104 127 127 -102 104 -124 -124 -102 -104 -127 -127 102 -104 124 hvcurveto
            endchar
          </CharString>
          <CharString index="68">
            719 32 callgsubr
            -206 hlineto
            -239 -339 rlineto
            return
          </CharString>
          <CharString index="69">
            -13 callsubr
            16 hlineto
            172 16 callsubr
            return
          </CharString>
          <CharString index="70">
            rmoveto
            208 109 124 181 175 106 -125 -207 vhcurveto
            168 -129 rmoveto
            106 vlineto
            314 -166 187 -282 -276 -183 -188 -286 vhcurveto
            -163 vlineto
            -281 143 -174 251 -29 vhcurveto
            -55 -134 rlineto
            -86 57 vlineto
            103 41 -19 -46 -47 -40 -25 -74 -35 callgsubr
            -128 1 hvcurveto
            45 114 201 18 149 115 30 165 rlinecurve
            147 callgsubr
            vlineto
            endchar
          </CharString>
          <CharString index="71">
            166 hmoveto
            332 662 rlineto
            58 -662 152 662 59 hlineto
            332 -662 rlineto
            173 hlineto
            -379 740 340 703 rlineto
            -169 hlineto
            -297 -637 rlineto
            -59 637 -152 -637 -59 hlineto
            -297 637 rlineto
            -171 hlineto
            342 -705 -377 -738 rlineto
            return
          </CharString>
          <CharString index="72">
            1420 417 rmoveto
            286 return
          </CharString>
          <CharString index="73">
            rmoveto
            269 -575 rlineto
            199 hlineto
            -294 611 rlineto
            164 54 105 155 189 vvcurveto
            268 -179 166 -286 vhcurveto
            -484 -65 callgsubr
            174 575 hlineto
            711 vmoveto
            294 hlineto
            193 110 -102 -179 -180 -112 -101 -199 hvcurveto
            -286 hlineto
            endchar
          </CharString>
          <CharString index="74">
            173 callsubr
            -80 -68 24 45 -50 vhcurveto
            460 600 rlineto
            26 -53 14 -64 -74 vvcurveto
            -604 hmoveto
            213 116 132 186 80 67 -24 -45 50 vhcurveto
            -459 -600 rlineto
            -26 52 -14 65 74 vvcurveto
            783 609 rmoveto
            -131 hlineto
            -54 -70 rlineto
            57 -77 -101 32 -118 190 callsubr
            -129 35 -108 64 -81 vhcurveto
            -109 -142 rlineto
            128 hlineto
            54 71 rlineto
            -59 78 101 -32 119 hhcurveto
            198 callsubr
            129 -35 108 -64 81 vhcurveto
            endchar
          </CharString>
          <CharString index="75">
            312 495 rlineto
            72 -495 144 495 72 hlineto
            312 -495 rlineto
            185 hlineto
            -377 566 361 519 rlineto
            -178 hlineto
            -305 -468 rlineto
            -70 468 -144 -468 -70 hlineto
            -304 468 rlineto
            -179 hlineto
            361 -519 -377 -566 rlineto
            endchar
          </CharString>
          <CharString index="76">
            874 1085 rmoveto
            -663 -141 496 -918 hlineto
            -155 -61 -48 -202 -66 -140 3 5 -52 vhcurveto
            -152 vlineto
            -6 72 116 -2 75 hhcurveto
            302 123 95 240 hvcurveto
            return
          </CharString>
          <CharString index="77">
            -65 45 callgsubr
            return
          </CharString>
          <CharString index="78">
            hvcurveto
            67 -89 rlineto
            105 40 63 77 94 vvcurveto
            109 -83 74 -121 -52 166 callsubr
            return
          </CharString>
          <CharString index="79">
            840 661 rmoveto
            156 -185 vlineto
            -183 -124 102 153 149 119 96 182 181 124 -98 -151 12 hvcurveto
            169 hlineto
            247 -15 -192 158 -285 hhcurveto
            -274 -194 -159 -223 -173 108 -124 166 -36 hvcurveto
            -13 vlineto
            -206 -18 -133 -128 -205 vvcurveto
            -252 218 -172 312 299 215 169 244 10 vhcurveto
            -170 hlineto
            -149 -10 -146 -104 -198 hhcurveto
            -208 -141 106 166 163 133 96 226 hvcurveto
            return
          </CharString>
          <CharString index="80">
            -62 32 callsubr
            62 hvcurveto
            return
          </CharString>
          <CharString index="81">
            rmoveto
            233 105 129 189 140 106 -80 -127 21 vhcurveto
            168 hlineto
            223 -28 -164 136 -240 hhcurveto
            -295 -172 -181 -311 hvcurveto
            -142 vlineto
            return
          </CharString>
          <CharString index="82">
            rmoveto
            203 116 133 175 176 108 -133 -203 vhcurveto
            -141 vlineto
            -203 -108 -133 -176 -175 -116 133 203 vhcurveto
            888 -328 rmoveto
            -4 -17 -20 -3 -18 hhcurveto
            -67 -26 37 95 hvcurveto
            815 -162 -160 -19 vlineto
            107 -50 -109 71 -155 hhcurveto
            -247 -165 -186 -281 hvcurveto
            -186 vlineto
            -281 166 -187 247 154 111 68 115 47 vhcurveto
            19 hlineto
            -113 12 73 -62 121 hhcurveto
            41 44 4 8 20 hvcurveto
            endchar
          </CharString>
          <CharString index="83">
            -70 -79 -107 -39 -149 hhcurveto
            -202 -133 126 215 hvcurveto
            396 -177 -408 vlineto
            -294 189 -202 306 138 117 33 64 84 vhcurveto
            13 return
          </CharString>
          <CharString index="84">
            rmoveto
            55 callgsubr
            404 hmoveto
            27 callgsubr
            endchar
          </CharString>
          <CharString index="85">
            1122 164 rmoveto
            -684 1279 -175 -65 callgsubr
            859 hlineto
            return
          </CharString>
          <CharString index="86">
            rmoveto
            -182 140 -127 205 205 140 127 182 vhcurveto
            -138 hlineto
            -111 -1 -85 -80 -121 hhcurveto
            -121 -85 80 111 -1 hvcurveto
            endchar
          </CharString>
          <CharString index="87">
            421 429 102 callgsubr
            -473 -487 rlineto
            -13 913 -170 -1511 170 return
          </CharString>
          <CharString index="88">
            -16 callsubr
            66 -54 return
          </CharString>
          <CharString index="89">
            -183 -187 return
          </CharString>
          <CharString index="90">
            591 -30 rmoveto
            267 163 166 275 hvcurveto
            1032 -673 -157 496 -870 vlineto
            -178 -92 -100 -163 -143 -101 90 133 -5 vhcurveto
            -173 hlineto
            -233 1 172 -158 251 hhcurveto
            return
          </CharString>
          <CharString index="91">
            63 54 56 65 return
          </CharString>
          <CharString index="92">
            -833 rmoveto
            -200 -114 -129 -179 -179 106 callsubr
            141 callsubr
            -587 300 rmoveto
            72 callgsubr
            vlineto
            -119 47 45 callsubr
            113 callgsubr
            vhcurveto
            endchar
          </CharString>
          <CharString index="93">
            vlineto
            -76 callsubr
            -78 callsubr
            vhcurveto
            return
          </CharString>
          <CharString index="94">
            rmoveto
            -274 17 callsubr
            return
          </CharString>
          <CharString index="95">
            1258 rmoveto
            192 -135 139 -221 -221 -135 -139 -192 vhcurveto
            return
          </CharString>
          <CharString index="96">
            818 758 rmoveto
            166 36 108 132 165 vvcurveto
            223 -194 159 -274 -285 -192 -158 -247 -15 vhcurveto
            169 hlineto
            151 12 124 98 181 hhcurveto
            182 119 -96 -149 -153 -124 -102 -183 hvcurveto
            -185 -156 190 hlineto
            226 133 -96 -163 -161 -142 -111 -207 -198 -146 104 149 -10 hvcurveto
            -170 hlineto
            9 return
          </CharString>
          <CharString index="97">
            650 -21 rmoveto
            265 163 141 208 31 hvcurveto
            -166 hlineto
            -120 -30 -102 -75 -159 hhcurveto
            -192 -124 136 222 -11 hvcurveto
            500 136 -498 hlineto
            203 17 125 122 183 hhcurveto
            161 101 -86 -117 30 hvcurveto
            166 hlineto
            205 -30 -166 151 -264 hhcurveto
            -308 -188 -212 -346 -355 188 -213 308 hvcurveto
            return
          </CharString>
          <CharString index="98">
            233 vlineto
            399 -201 236 -328 -328 -201 -236 -399 vhcurveto
            return
          </CharString>
          <CharString index="99">
            28 callgsubr
            57 callsubr
            return
          </CharString>
          <CharString index="100">
            453 873 rmoveto
            272 9 107 162 205 hhcurveto
            194 119 -143 -273 hvcurveto
            -21 -634 vlineto
            -2 -161 rmoveto
            799 hlineto
            0 2 136 27 vvcurveto
            357 -164 244 -314 -305 -156 -224 -380 -25 vhcurveto
            -87 -41 43 83 72 23 51 0 hvcurveto
            -145 hlineto
            0 -29 -57 -82 vvcurveto
            -158 77 -110 198 -1 vhcurveto
            -54 vlineto
            return
          </CharString>
          <CharString index="101">
            -33 -47 -44 -42 -43 -59 -20 -4 callgsubr
          </CharString>
          <CharString index="102">
            120 callsubr
            -24 -140 rmoveto
            23 hlineto
            206 69 -144 -436 -442 -68 -142 -207 hvcurveto
            -23 hlineto
            463 -139 rmoveto
            572 145 -409 14 hlineto
            399 1154 rlineto
            130 -537 -145 378 -14 vlineto
            -403 -1155 rlineto
            endchar
          </CharString>
          <CharString index="103">
            rmoveto
            185 92 callsubr
            -206 hlineto
            return
          </CharString>
          <CharString index="104">
            120 callsubr
            -22 -140 rmoveto
            21 hlineto
            206 66 -144 -436 -442 -66 -142 -206 hvcurveto
            -21 hlineto
            518 -139 rmoveto
            525 134 -361 14 hlineto
            357 810 rlineto
            127 -510 -134 353 -14 vlineto
            -364 -817 rlineto
            endchar
          </CharString>
          <CharString index="105">
            578 0 callsubr
            22 return
          </CharString>
          <CharString index="106">
            -88 callsubr
            endchar
          </CharString>
          <CharString index="107">
            rmoveto
            -79 callsubr
            return
          </CharString>
          <CharString index="108">
            rmoveto
            -131 -73 85 115 hvcurveto
            -152 hlineto
            138 callgsubr
            126 callsubr
            endchar
          </CharString>
          <CharString index="109">
            -18 callgsubr
            55 -62 return
          </CharString>
          <CharString index="110">
            vlineto
            -61 -150 12 callgsubr
            return
          </CharString>
          <CharString index="111">
            1662 rmoveto
            273 317 212 callsubr
            -181 -215 rlineto
            -14 hlineto
            -181 215 212 callsubr
            273 -317 rlineto
            -111 -351 -57 callgsubr
            endchar
          </CharString>
          <CharString index="112">
            rmoveto
            60 65 callsubr
            -60 134 callgsubr
            48 49 61 62 -48 43 callgsubr
            endchar
          </CharString>
          <CharString index="113">
            135 callsubr
            322 -304 rlineto
            186 hlineto
            return
          </CharString>
          <CharString index="114">
            -75 callsubr
            endchar
          </CharString>
          <CharString index="115">
            24 rrcurveto
            101 vlineto
            -122 -14 -116 -56 -79 -82 rrcurveto
            -84 -85 -45 -111 -123 vvcurveto
            -205 128 -143 183 165 124 121 162 vhcurveto
            return
          </CharString>
          <CharString index="116">
            hlineto
            180 28 callsubr
            return
          </CharString>
          <CharString index="117">
            471 145 rmoveto
            434 235 vlineto
            178 88 -79 -138 -139 -88 -78 -178 hvcurveto
            -235 577 rmoveto
            233 466 130 -466 426 -170 -426 -268 -130 268 -955 416 vlineto
            277 146 131 230 230 -146 131 -277 hvcurveto
            endchar
          </CharString>
          <CharString index="118">
            rmoveto
            15 callsubr
          </CharString>
          <CharString index="119">
            30 callsubr
            hvcurveto
            return
          </CharString>
          <CharString index="120">
            1108 125 callgsubr
            -812 vlineto
            -47 -905 rlineto
            -267 -15 -55 -111 -120 hhcurveto
            -19 -23 3 4 -11 hvcurveto
            -166 vlineto
            -7 20 28 -4 24 hhcurveto
            209 103 166 371 20 hvcurveto
            41 754 rlineto
            486 -1281 169 -286 160 452 hlineto
            endchar
          </CharString>
          <CharString index="121">
            65 25 callsubr
            -65 return
          </CharString>
          <CharString index="122">
            -91 callsubr
            endchar
          </CharString>
          <CharString index="123">
            -227 -47 callsubr
            342 rlineto
            return
          </CharString>
          <CharString index="124">
            -342 93 callgsubr
            227 rlineto
            return
          </CharString>
          <CharString index="125">
            -145 202 -795 -202 -145 634 145 -262 793 445 -214 155 return
          </CharString>
          <CharString index="126">
            638 212 rmoveto
            -5 hlineto
            -374 1231 rlineto
            -185 hlineto
            465 -65 callgsubr
            rlineto
            188 hlineto
            465 1443 rlineto
            -178 hlineto
            return
          </CharString>
          <CharString index="127">
            rmoveto
            129 361 rlineto
            -176 124 callgsubr
          </CharString>
          <CharString index="128">
            -44 callgsubr
            182 hvcurveto
            -140 hlineto
            -109 -26 -46 return
          </CharString>
          <CharString index="129">
            51 callsubr
            -14 37 callgsubr
            return
          </CharString>
          <CharString index="130">
            1082 162 -101 callgsubr
            -346 1921 161 callsubr
            14 hlineto
            180 -200 rlineto
            179 hlineto
            return
          </CharString>
          <CharString index="131">
            -309 rlineto
            180 hlineto
            180 200 rlineto
            13 155 callgsubr
          </CharString>
          <CharString index="132">
            -55 56 -62 -63 -54 -56 return
          </CharString>
          <CharString index="133">
            186 callgsubr
            -195 hlineto
            313 -304 rlineto
            176 hlineto
            -673 304 rmoveto
            -194 174 callgsubr
            return
          </CharString>
          <CharString index="134">
            -301 -51 callsubr
            -219 -132 168 301 vhcurveto
            return
          </CharString>
          <CharString index="135">
            200 rlineto
            63 callgsubr
            return
          </CharString>
          <CharString index="136">
            -61 -54 -55 -63 193 callsubr
            622 hmoveto
            61 54 55 64 63 -54 55 -61 -62 -53 -55 -63 -64 53 -55 62 hvcurveto
            endchar
          </CharString>
          <CharString index="137">
            -59 51 callgsubr
            59 return
          </CharString>
          <CharString index="138">
            rmoveto
            185 hlineto
            323 145 callgsubr
            return
          </CharString>
          <CharString index="139">
            -55 -55 -66 -65 55 -56 return
          </CharString>
          <CharString index="140">
            473 hmoveto
            170 937 477 145 -479 112 hlineto
            109 80 56 151 61 140 -4 -5 47 vhcurveto
            139 vlineto
            5 -36 -151 5 -63 hhcurveto
            -267 -130 -98 -210 hvcurveto
            -109 -291 -145 291 vlineto
            return
          </CharString>
          <CharString index="141">
            rmoveto
            170 hlineto
            250 339 rlineto
            -193 hlineto
            -616 -339 rmoveto
            170 hlineto
            249 339 rlineto
            -192 hlineto
            endchar
          </CharString>
          <CharString index="142">
            rmoveto
            274 342 rlineto
            -194 125 callsubr
            -15 hlineto
            -173 227 rlineto
            -194 hlineto
            274 -342 rlineto
            return
          </CharString>
          <CharString index="143">
            -451 rmoveto
            -100 callsubr
            return
          </CharString>
          <CharString index="144">
            -106 hlineto
            1160 105 188 callgsubr
            -212 -106 rmoveto
            106 106 -106 hlineto
            -211 -106 rmoveto
            106 106 -106 hlineto
            -210 181 callsubr
            949 return
          </CharString>
          <CharString index="145">
            -97 callgsubr
            endchar
          </CharString>
          <CharString index="146">
            rmoveto
            120 -663 -120 vlineto
            458 237 rmoveto
            -207 231 178 callsubr
            229 -231 rlineto
            endchar
          </CharString>
          <CharString index="147">
            vmoveto
            46 callsubr
          </CharString>
          <CharString index="148">
            131 callsubr
            -60 vhcurveto
            -86 65 callgsubr
            -141 -86 -33 callgsubr
          </CharString>
          <CharString index="149">
            155 callsubr
            hvcurveto
            -527 144 rmoveto
            663 120 -663 hlineto
            138 -264 rmoveto
            -59 return
          </CharString>
          <CharString index="150">
            rmoveto
            16 31 41 211 callgsubr
            41 return
          </CharString>
          <CharString index="151">
            1620 -71 callsubr
            endchar
          </CharString>
          <CharString index="152">
            115 -67 157 hhcurveto
            251 164 181 278 hvcurveto
            202 vlineto
            279 -164 181 -251 return
          </CharString>
          <CharString index="153">
            -101 callsubr
            endchar
          </CharString>
          <CharString index="154">
            hvcurveto
            68 -89 rlineto
            104 40 63 77 94 vvcurveto
            109 -83 74 -120 -53 -55 return
          </CharString>
          <CharString index="155">
            -7 callgsubr
            -1257 return
          </CharString>
          <CharString index="156">
            177 callsubr
            132 208 callsubr
            return
          </CharString>
          <CharString index="157">
            -294 -289 -145 289 return
          </CharString>
          <CharString index="158">
            hlineto
            -180 -200 rlineto
            return
          </CharString>
          <CharString index="159">
            -154 97 -99 196 -45 return
          </CharString>
          <CharString index="160">
            -47 -905 rlineto
            -267 -15 -56 -111 -120 hhcurveto
            -19 -24 3 4 -11 hvcurveto
            -166 vlineto
            -7 20 29 -4 25 hhcurveto
            211 105 166 371 20 hvcurveto
            42 754 rlineto
            491 -1281 return
          </CharString>
          <CharString index="161">
            rmoveto
            105 105 -105 hlineto
            -211 -105 rmoveto
            106 105 221 callsubr
            -105 rmoveto
            return
          </CharString>
          <CharString index="162">
            79 30 50 70 80 vvcurveto
            97 -74 64 -110 -49 -52 -8 -11 -25 vhcurveto
            return
          </CharString>
          <CharString index="163">
            160 -649 1320 -276 return
          </CharString>
          <CharString index="164">
            1320 -154 return
          </CharString>
          <CharString index="165">
            vlineto
            -6 314 rlineto
            3 hlineto
            201 -210 219 -223 107 114 -598 594 -598 -594 107 -114 219 223 201 210 rlineto
            3 hlineto
            -6 -314 rlineto
            return
          </CharString>
          <CharString index="166">
            460 -61 callgsubr
            return
          </CharString>
          <CharString index="167">
            rmoveto
            -186 133 88 callsubr
            return
          </CharString>
          <CharString index="168">
            1370 -90 callgsubr
            return
          </CharString>
          <CharString index="169">
            -18 callgsubr
            56 -62 return
          </CharString>
          <CharString index="170">
            1589 rmoveto
            138 callgsubr
            -73 -85 -131 -132 -73 85 115 1 vhcurveto
            102 381 rmoveto
            return
          </CharString>
          <CharString index="171">
            -287 rmoveto
            -6 -16 -31 -3 -26 hhcurveto
            -80 -46 42 74 60 39 67 66 53 hvcurveto
            -145 hlineto
            -78 -69 -37 -72 -87 vvcurveto
            -124 93 -80 145 45 49 9 12 22 vhcurveto
            endchar
          </CharString>
          <CharString index="172">
            47 49 61 62 -47 49 return
          </CharString>
          <CharString index="173">
            1257 vlineto
            endchar
          </CharString>
          <CharString index="174">
            633 762 rmoveto
            99 82 84 101 101 -82 84 -99 -99 -82 -84 -101 -101 82 -84 99 hvcurveto
            -52 -1094 rmoveto
            181 711 rlineto
            -230 hlineto
            -130 -711 rlineto
            endchar
          </CharString>
          <CharString index="175">
            -154 hlineto
            -154 -1320 rmoveto
            57 callsubr
            -1161 -556 -159 vlineto
            return
          </CharString>
          <CharString index="176">
            1574 rmoveto
            -117 -1 -77 -80 -109 hhcurveto
            -109 -77 80 117 -1 hvcurveto
            -144 hlineto
            -185 134 -127 197 197 134 127 185 vhcurveto
            return
          </CharString>
          <CharString index="177">
            rmoveto
            59 47 49 61 62 -47 49 -59 -59 -47 -49 -62 -61 47 -49 59 hvcurveto
            389 hmoveto
            162 callsubr
            endchar
          </CharString>
          <CharString index="178">
            1299 rmoveto
            -101 callsubr
            return
          </CharString>
          <CharString index="179">
            rmoveto
            177 hlineto
            312 304 rlineto
            -194 hlineto
            return
          </CharString>
          <CharString index="180">
            633 137 rmoveto
            return
          </CharString>
          <CharString index="181">
            rmoveto
            -201 -114 -128 -179 -179 -114 129 200 141 callsubr
            return
          </CharString>
          <CharString index="182">
            126 callgsubr
            -58 68 return
          </CharString>
          <CharString index="183">
            1609 rmoveto
            111 86 79 121 120 86 -79 -111 vhcurveto
            139 hlineto
            182 -140 127 -205 -206 -140 -127 -182 vhcurveto
            return
          </CharString>
          <CharString index="184">
            -51 66 hvcurveto
            90 -290 rmoveto
            282 237 rlineto
            -194 hlineto
            -171 -146 rlineto
            -14 hlineto
            -171 146 rlineto
            -194 hlineto
            282 -237 rlineto
            endchar
          </CharString>
          <CharString index="185">
            -286 710 -1257 154 66 callsubr
          </CharString>
          <CharString index="186">
            -65 callgsubr
            hlineto
            return
          </CharString>
          <CharString index="187">
            rmoveto
            -182 140 -127 206 205 140 127 182 vhcurveto
            -139 hlineto
            -111 -86 -80 -120 -121 -86 80 111 vhcurveto
            endchar
          </CharString>
          <CharString index="188">
            -100 -1 -77 -61 -129 hhcurveto
            -129 -77 61 100 -1 hvcurveto
            return
          </CharString>
          <CharString index="189" raw="1">
            55c34c4d 54530b  
          </CharString>
          <CharString index="190">
            618 1296 rmoveto
            170 hlineto
            249 339 rlineto
            -192 hlineto
            -616 -339 rmoveto
            169 hlineto
            250 339 rlineto
            -193 hlineto
            endchar
          </CharString>
          <CharString index="191">
            -840 90 callgsubr
            return
          </CharString>
          <CharString index="192">
            -1296 rmoveto
            104 callgsubr
          </CharString>
          <CharString index="193">
            -100 callsubr
            endchar
          </CharString>
          <CharString index="194">
            -76 callgsubr
            endchar
          </CharString>
          <CharString index="195">
            134 callsubr
            -144 hlineto
            -117 return
          </CharString>
          <CharString index="196">
            1574 194 callgsubr
            hlineto
            return
          </CharString>
          <CharString index="197">
            128 callsubr
            146 callgsubr
            return
          </CharString>
          <CharString index="198">
            -86 57 vlineto
            109 callsubr
            return
          </CharString>
          <CharString index="199">
            hlineto
            322 304 rlineto
            return
          </CharString>
          <CharString index="200">
            1296 rmoveto
            274 342 rlineto
            -194 hlineto
            -173 -227 rlineto
            -15 hlineto
            -172 227 rlineto
            -194 hlineto
            274 -342 rlineto
            return
          </CharString>
          <CharString index="201">
            -35 callgsubr
            -128 1 hvcurveto
            52 132 rlineto
            return
          </CharString>
          <CharString index="202">
            rmoveto
            226 callgsubr
            133 126 185 vhcurveto
            -143 hlineto
            -116 -1 -77 -81 -109 hhcurveto
            -110 return
          </CharString>
          <CharString index="203">
            rmoveto
            -1146 -157 279 -1128 -279 -158 775 158 -320 1128 529 -267 162 hlineto
            endchar
          </CharString>
          <CharString index="204">
            rmoveto
            105 106 -105 hlineto
            -211 224 callgsubr
            return
          </CharString>
          <CharString index="205">
            228 callgsubr
            160 710 228 callgsubr
            1161 -154 return
          </CharString>
          <CharString index="206">
            16 callsubr
            endchar
          </CharString>
          <CharString index="207">
            633 1024 -633 hlineto
            return
          </CharString>
          <CharString index="208">
            1443 rmoveto
            return
          </CharString>
          <CharString index="209">
            409 -1 rlineto
            151 vlineto
            -409 -1 1 434 rlineto
            -144 hlineto
            1 -434 -409 1 rlineto
            -151 vlineto
            409 1 return
          </CharString>
          <CharString index="210">
            rmoveto
            -131 145 -105 196 196 145 105 131 vhcurveto
            -136 hlineto
            -65 -90 -55 -115 -115 -90 55 65 vhcurveto
            return
          </CharString>
          <CharString index="211">
            -160 556 62 callgsubr
            154 hlineto
            endchar
          </CharString>
          <CharString index="212">
            rmoveto
            -207 hlineto
            -239 -339 rlineto
            181 hlineto
            return
          </CharString>
          <CharString index="213">
            -114 128 201 return
          </CharString>
          <CharString index="214">
            rmoveto
            -131 -73 85 114 1 hvcurveto
            -153 hlineto
            -191 -52 callsubr
            191 vhcurveto
            return
          </CharString>
          <CharString index="215">
            261 175 134 201 127 -91 95 -149 29 hvcurveto
            return
          </CharString>
          <CharString index="216">
            103 41 -19 -46 -47 return
          </CharString>
          <CharString index="217">
            352 hmoveto
            488 562 -488 168 1085 202 callgsubr
            vlineto
            endchar
          </CharString>
          <CharString index="218">
            rmoveto
            174 632 rlineto
            -178 hlineto
            -148 -632 rlineto
            endchar
          </CharString>
          <CharString index="219">
            57 callsubr
            -1320 return
          </CharString>
          <CharString index="220">
            -38 -50 5 3 -29 vhcurveto
            -146 vlineto
            -4 42 44 -6 47 hhcurveto
            return
          </CharString>
          <CharString index="221">
            1612 -41 callgsubr
            return
          </CharString>
          <CharString index="222">
            29 callgsubr
            -128 1 hvcurveto
            return
          </CharString>
          <CharString index="223">
            109 callsubr
            -41 -25 return
          </CharString>
          <CharString index="224">
            -85 -110 -183 hvcurveto
            return
          </CharString>
          <CharString index="225">
            -56 63 hvcurveto
            403 117 callgsubr
            -17 callgsubr
            endchar
          </CharString>
          <CharString index="226">
            145 callsubr
            154 1320 556 160 return
          </CharString>
          <CharString index="227">
            185 callsubr
            171 vlineto
            311 114 189 534 530 -115 190 -310 hvcurveto
            return
          </CharString>
          <CharString index="228">
            rmoveto
            133 callgsubr
          </CharString>
          <CharString index="229">
            -1 73 85 131 hhcurveto
            132 73 -85 return
          </CharString>
          <CharString index="230">
            100 callsubr
            endchar
          </CharString>
          <CharString index="231">
            109 callgsubr
            -63 return
          </CharString>
          <CharString index="232">
            hlineto
            -172 -227 rlineto
            return
          </CharString>
          <CharString index="233">
            1 197 callgsubr
            hhcurveto
            return
          </CharString>
          <CharString index="234">
            -464 vmoveto
            1266 return
          </CharString>
          <CharString index="235">
            -62 -55 -56 -65 return
          </CharString>
          <CharString index="236">
            rmoveto
            -68 -50 53 69 69 50 53 68 183 callgsubr
            return
          </CharString>
          <CharString index="237">
            109 84 85 107 108 -84 84 -109 -109 -84 -84 -108 -107 85 -85 108 hvcurveto
            return
          </CharString>
          <CharString index="238">
            rmoveto
            86 42 -38 callgsubr
            181 hvcurveto
            -140 hlineto
            -108 -26 -47 return
          </CharString>
          <CharString index="239">
            -168 hlineto
            -193 -34 -103 -119 -165 hhcurveto
            -208 -122 167 331 hvcurveto
            endchar
          </CharString>
          <CharString index="240">
            -161 hlineto
            -95 -30 -96 -58 -132 hhcurveto
            -179 -114 128 199 hvcurveto
            44 vlineto
            endchar
          </CharString>
          <CharString index="241">
            -126 197 197 134 126 186 vhcurveto
            return
          </CharString>
          <CharString index="242">
            186 callgsubr
            -207 hlineto
            return
          </CharString>
          <CharString index="243">
            178 callgsubr
            hhcurveto
            return
          </CharString>
          <CharString index="244">
            hlineto
            -109 -44 -68 -108 -41 -35 1 2 -18 vhcurveto
            -155 vlineto
            -3 24 39 -3 55 hhcurveto
            return
          </CharString>
          <CharString index="245">
            158 1085 rmoveto
            -147 390 -938 170 938 390 147 vlineto
            endchar
          </CharString>
          <CharString index="246">
            -154 -1320 -154 112 callsubr
            -556 -160 vlineto
            endchar
          </CharString>
          <CharString index="247">
            -1266 hlineto
            endchar
          </CharString>
          <CharString index="248">
            vhcurveto
            156 vlineto
            200 114 128 179 76 callgsubr
            vhcurveto
            return
          </CharString>
          <CharString index="249">
            633 -6 rmoveto
            99 82 83 102 101 -82 83 -99 -99 -82 -83 -101 -102 82 -83 99 hvcurveto
            return
          </CharString>
          <CharString index="250">
            rmoveto
            176 hlineto
            313 206 callgsubr
            return
          </CharString>
          <CharString index="251">
            135 callgsubr
            hvcurveto
            return
          </CharString>
          <CharString index="252">
            710 -840 rmoveto
            return
          </CharString>
          <CharString index="253">
            -194 -13 callgsubr
            return
          </CharString>
          <CharString index="254">
            vhcurveto
            144 hlineto
            117 1 77 81 109 hhcurveto
            109 77 -81 -117 1 hvcurveto
            return
          </CharString>
          <CharString index="255">
            745 1862 rmoveto
            -164 221 230 callsubr
            189 -221 rlineto
            return
          </CharString>
          <CharString index="256">
            56 -63 144 callsubr
            return
          </CharString>
          <CharString index="257">
            1121 1085 rmoveto
            -972 -145 202 return
          </CharString>
          <CharString index="258">
            -1061 hlineto
            -154 -61 -49 return
          </CharString>
          <CharString index="259">
            rmoveto
            61 54 55 64 63 -54 55 -61 -61 -54 -55 -63 193 callsubr
            return
          </CharString>
          <CharString index="260">
            rmoveto
            162 callsubr
            return
          </CharString>
          <CharString index="261">
            -342 rlineto
            194 61 callgsubr
            return
          </CharString>
          <CharString index="262">
            59 65 callsubr
            -59 return
          </CharString>
          <CharString index="263">
            63 54 56 137 callgsubr
            return
          </CharString>
          <CharString index="264">
            -76 -61 -63 -79 -79 61 -63 76 return
          </CharString>
          <CharString index="265">
            76 61 63 79 79 -61 63 -76 return
          </CharString>
          <CharString index="266">
            -55 -56 -65 -66 55 -55 return
          </CharString>
          <CharString index="267">
            rlineto
            -197 hlineto
            return
          </CharString>
          <CharString index="268">
            rmoveto
            -160 182 callsubr
            return
          </CharString>
          <CharString index="269">
            143 callgsubr
            -61 48 -49 59 hvcurveto
            return
          </CharString>
          <CharString index="270">
            -160 193 callgsubr
            return
          </CharString>
          <CharString index="271">
            1229 101 callsubr
            -1146 return
          </CharString>
          <CharString index="272">
            771 -840 rmoveto
            return
          </CharString>
          <CharString index="273">
            -55 -12 -16 -35 vhcurveto
            return
          </CharString>
          <CharString index="274">
            11 21 40 8 33 hhcurveto
            53 36 -29 -41 -41 -31 -37 -52 -20 hvcurveto
            return
          </CharString>
          <CharString index="275">
            228 callsubr
            -1320 vlineto
            endchar
          </CharString>
          <CharString index="276">
            154 160 callgsubr
          </CharString>
          <CharString index="277">
            -169 130 -106 212 212 130 106 169 vhcurveto
            return
          </CharString>
          <CharString index="278">
            143 137 94 109 -94 441 -213 hlineto
            -14 -28 return
          </CharString>
          <CharString index="279">
            1162 561 rmoveto
            158 -1058 -158 vlineto
            endchar
          </CharString>
          <CharString index="280">
            rmoveto
            -214 -116 -131 -186 return
          </CharString>
          <CharString index="281">
            276 384 -276 hlineto
            return
          </CharString>
          <CharString index="282">
            -286 649 -1257 return
          </CharString>
          <CharString index="283">
            70 70 -58 59 -68 return
          </CharString>
          <CharString index="284">
            rmoveto
            155 hlineto
            return
          </CharString>
          <CharString index="285">
            rlineto
            -195 hlineto
            return
          </CharString>
          <CharString index="286">
            -1092 rlineto
            171 1443 -138 -1090 -18 hlineto
            return
          </CharString>
          <CharString index="287">
            198 callgsubr
            -111 return
          </CharString>
          <CharString index="288">
            -106 rmoveto
            105 106 -105 hlineto
            -211 -106 rmoveto
            105 106 -105 hlineto
            return
          </CharString>
          <CharString index="289">
            hlineto
            -287 -309 rlineto
            180 hlineto
            180 200 rlineto
            return
          </CharString>
          <CharString index="290">
            -106 rmoveto
            105 106 -105 hlineto
            210 -106 rmoveto
            106 106 -106 hlineto
            return
          </CharString>
          <CharString index="291">
            186 callsubr
            endchar
          </CharString>
          <CharString index="292">
            rmoveto
            -65 callgsubr
            return
          </CharString>
          <CharString index="293">
            -65 callgsubr
            vlineto
            return
          </CharString>
          <CharString index="294">
            965 2051 rmoveto
            -663 -120 663 hlineto
            return
          </CharString>
          <CharString index="295">
            hlineto
            350 420 rlineto
            4 vlineto
            -350 420 rlineto
            return
          </CharString>
          <CharString index="296">
            rmoveto
            710 159 -556 1161 -154 hlineto
            return
          </CharString>
          <CharString index="297">
            hhcurveto
            -287 -18 callsubr
            -293 hvcurveto
            -164 vlineto
            return
          </CharString>
          <CharString index="298">
            710 84 callsubr
            return
          </CharString>
          <CharString index="299">
            rmoveto
            237 286 -237 hlineto
            return
          </CharString>
          <CharString index="300">
            -64 54 -55 61 hvcurveto
            return
          </CharString>
          <CharString index="301">
            hmoveto
            -106 -106 106 vlineto
            return
          </CharString>
          <CharString index="302">
            1257 -154 return
          </CharString>
          <CharString index="303">
            104 164 hvcurveto
            return
          </CharString>
          <CharString index="304">
            rlineto
            166 hlineto
            return
          </CharString>
          <CharString index="305">
            -78 callsubr
            hvcurveto
            164 vlineto
            return
          </CharString>
          <CharString index="306">
            86 43 -157 156 hhcurveto
            141 85 111 return
          </CharString>
          <CharString index="307">
            1085 rmoveto
            -165 151 callsubr
            return
          </CharString>
          <CharString index="308">
            67 51 -53 -69 -69 -51 -53 -67 hvcurveto
            -109 vmoveto
            return
          </CharString>
          <CharString index="309">
            rmoveto
            157 hlineto
            129 361 212 callsubr
            return
          </CharString>
          <CharString index="310">
            hmoveto
            -105 105 105 vlineto
            316 hmoveto
            -105 106 105 vlineto
            return
          </CharString>
          <CharString index="311">
            480 rmoveto
            864 160 -864 hlineto
            endchar
          </CharString>
          <CharString index="312">
            206 callsubr
            endchar
          </CharString>
          <CharString index="313">
            154 1161 vlineto
            return
          </CharString>
          <CharString index="314">
            105 vlineto
            -527 hmoveto
            -105 return
          </CharString>
          <CharString index="315">
            346 102 callgsubr
            return
          </CharString>
          <CharString index="316">
            rmoveto
            -213 239 rlineto
            return
          </CharString>
          <CharString index="317">
            rlineto
            -158 hlineto
            return
          </CharString>
          <CharString index="318">
            rlineto
            -167 hlineto
            return
          </CharString>
          <CharString index="319">
            rlineto
            -176 hlineto
            return
          </CharString>
          <CharString index="320">
            208 callsubr
            -232 -320 rmoveto
            return
          </CharString>
          <CharString index="321">
            89 102 180 hvcurveto
            86 vlineto
            180 -89 101 return
          </CharString>
          <CharString index="322">
            -33 -173 105 -266 hhcurveto
            -298 -146 return
          </CharString>
          <CharString index="323">
            -89 -101 -180 vhcurveto
            -86 vlineto
            -180 89 -102 return
          </CharString>
          <CharString index="324">
            -38 53 127 hvcurveto
            40 vlineto
            126 38 54 return
          </CharString>
          <CharString index="325">
            1259 rmoveto
            -131 -73 return
          </CharString>
          <CharString index="326">
            -109 -77 81 117 -1 return
          </CharString>
          <CharString index="327">
            -44 42 59 59 44 return
          </CharString>
          <CharString index="328">
            -106 hlineto
            -211 return
          </CharString>
          <CharString index="329">
            62 55 56 65 return
          </CharString>
          <CharString index="330">
            rmoveto
            66 51 51 66 65 -51 51 -66 -66 return
          </CharString>
          <CharString index="331">
            842 rlineto
            -186 -1085 143 hlineto
            return
          </CharString>
          <CharString index="332">
            -395 rmoveto
            660 139 -660 hlineto
            return
          </CharString>
          <CharString index="333">
            633 2048 -633 hlineto
            endchar
          </CharString>
          <CharString index="334">
            -68 -58 -59 -70 return
          </CharString>
          <CharString index="335">
            -160 649 return
          </CharString>
          <CharString index="336">
            hvcurveto
            231 vlineto
            return
          </CharString>
          <CharString index="337">
            rlineto
            -182 hlineto
            return
          </CharString>
        <CharString name=".notdef">
          endchar
        </CharString>
        <CharString name="A">
          425 565 -105 callgsubr
        </CharString>
        <CharString name="AE">
          353 589 -53 callsubr
        </CharString>
        <CharString name="AEacute">
          1225 50 callgsubr
          185 hlineto
          -549 -1023 -53 callsubr
        </CharString>
        <CharString name="AEmacron">
          1163 1835 92 callgsubr
          -810 -1107 -53 callsubr
        </CharString>
        <CharString name="Aacute">
          1025 50 callgsubr
          185 hlineto
          -277 -1047 -105 callgsubr
        </CharString>
        <CharString name="Abreve">
          840 3 callgsubr
          -553 -1353 -105 callgsubr
        </CharString>
        <CharString name="Abreveacute">
          867 2083 rmoveto
          -182 hlineto
          -164 -221 rlineto
          157 hlineto
          162 -5 rmoveto
          81 callsubr
          -138 hlineto
          56 callgsubr
          -553 -1292 -105 callgsubr
        </CharString>
        <CharString name="Abrevedotbelow">
          840 3 callgsubr
          -345 -2112 -43 callsubr
        </CharString>
        <CharString name="Abrevegrave">
          148 callsubr
          252 -5 rmoveto
          81 callsubr
          -138 hlineto
          56 callgsubr
          -553 -1292 -105 callgsubr
        </CharString>
        <CharString name="Abrevehookabove">
          652 1778 rmoveto
          161 callgsubr
          -99 vlineto
          167 callsubr
          270 hmoveto
          -100 -1 -78 -59 -130 hhcurveto
          -130 -78 59 100 -1 hvcurveto
          -133 hlineto
          170 callsubr
          -550 -1283 -105 callgsubr
        </CharString>
        <CharString name="Abrevetilde">
          856 2079 rmoveto
          85 callgsubr
          115 84 87 127 hvcurveto
          -684 -265 103 callsubr
          -3 -1249 -105 callgsubr
        </CharString>
        <CharString name="Acaron">
          713 1610 rmoveto
          286 309 rlineto
          -179 -37 callgsubr
          -128 -1045 -105 callgsubr
        </CharString>
        <CharString name="Acircumflex">
          94 callgsubr
          -21 -1047 -105 callgsubr
        </CharString>
        <CharString name="Acircumflexacute">
          1240 2083 rmoveto
          -192 hlineto
          -213 -239 rlineto
          170 hlineto
          -379 -120 rmoveto
          14 hlineto
          171 -146 -63 callgsubr
          -282 235 rlineto
          -180 hlineto
          -282 -235 -63 callgsubr
          -30 -1013 rmoveto
          203 666 rlineto
          5 hlineto
          202 -666 rlineto
          -296 878 rmoveto
          -465 -65 callgsubr
          rlineto
          179 hlineto
          126 414 rlineto
          502 hlineto
          125 -414 rlineto
          186 hlineto
          -465 1443 rlineto
          endchar
        </CharString>
        <CharString name="Acircumflexdotbelow">
          94 callgsubr
          187 -1806 -43 callsubr
        </CharString>
        <CharString name="Acircumflexgrave">
          1070 1844 209 callsubr
          -191 hlineto
          234 -239 rlineto
          -274 -120 rmoveto
          14 hlineto
          171 -146 -63 callgsubr
          -282 235 rlineto
          -180 hlineto
          -282 -235 -63 callgsubr
          -30 -1013 -105 callgsubr
        </CharString>
        <CharString name="Acircumflexhookabove">
          937 1770 rmoveto
          55 callsubr
          -101 vlineto
          89 callgsubr
          -51 -21 hvcurveto
          -231 -116 rmoveto
          14 hlineto
          171 -146 -63 callgsubr
          -282 235 rlineto
          -180 hlineto
          -282 -235 -63 callgsubr
          -30 -1013 -105 callgsubr
        </CharString>
        <CharString name="Acircumflextilde">
          863 2103 rmoveto
          -78 -4 -35 -41 -55 -104 -5 133 -167 hhcurveto
          -125 -85 -93 -145 hvcurveto
          121 hlineto
          77 3 33 41 57 104 5 -133 167 hhcurveto
          124 86 95 144 hvcurveto
          -357 -379 rmoveto
          14 hlineto
          171 -146 -63 callgsubr
          -282 235 rlineto
          -180 hlineto
          -282 -235 -63 callgsubr
          -30 -1013 -105 callgsubr
        </CharString>
        <CharString name="Acyrillic">
          425 565 -105 callgsubr
        </CharString>
        <CharString name="Adblgrave">
          946 1612 rmoveto
          -294 206 callgsubr
          312 -304 rlineto
          -202 hmoveto
          -294 206 callgsubr
          313 -304 rlineto
          34 -1047 -105 callgsubr
        </CharString>
        <CharString name="Adieresis">
          835 1651 -86 callgsubr
          -6 -1086 -105 callgsubr
        </CharString>
        <CharString name="Adieresismacron">
          187 callsubr
          -243 -255 rmoveto
          -61 47 -49 60 155 callsubr
          -60 -47 -49 -62 vhcurveto
          -389 hmoveto
          -61 48 -49 59 143 callgsubr
          vhcurveto
          92 -1111 -105 callgsubr
        </CharString>
        <CharString name="Adotaccent">
          633 1640 rmoveto
          -101 callsubr
          -208 -1075 -105 callgsubr
        </CharString>
        <CharString name="Adotbelow">
          633 -194 -43 callsubr
        </CharString>
        <CharString name="Adotmacron">
          187 callsubr
          -447 -238 rmoveto
          -66 51 -53 64 64 52 53 66 66 -52 52 -64 -64 -51 -52 -66 vhcurveto
          -93 -1128 -105 callgsubr
        </CharString>
        <CharString name="Agrave">
          747 1612 rmoveto
          -301 145 callgsubr
          322 -304 rlineto
          -136 -1047 -105 callgsubr
        </CharString>
        <CharString name="Ahookabove">
          639 1571 rmoveto
          99 38 64 79 89 vvcurveto
          109 -83 68 -126 -49 -53 -11 -14 -31 vhcurveto
          -113 vlineto
          13 25 42 9 43 hhcurveto
          63 40 -31 -44 -43 -41 -42 -60 -21 hvcurveto
          -147 -1092 -105 callgsubr
        </CharString>
        <CharString name="Ainvertedbreve">
          978 1609 rmoveto
          182 -140 127 -205 -205 -140 -127 -182 vhcurveto
          207 callgsubr
          85 79 121 hhcurveto
          121 85 -79 -111 1 hvcurveto
          -415 -1044 -105 callgsubr
        </CharString>
        <CharString name="Alphagreek">
          425 565 -105 callgsubr
        </CharString>
        <CharString name="Alphatonosgreek">
          376 101 callsubr
          -180 hlineto
          -85 -342 rlineto
          136 hlineto
          252 -536 rmoveto
          166 648 rlineto
          5 hlineto
          165 -648 rlineto
          144 -565 rmoveto
          185 hlineto
          -400 1443 rlineto
          -189 hlineto
          -398 -65 callgsubr
          rlineto
          177 hlineto
          106 414 rlineto
          414 hlineto
          endchar
        </CharString>
        <CharString name="Amacron">
          963 1835 92 callgsubr
          -538 -1131 -105 callgsubr
        </CharString>
        <CharString name="Aogonek">
          425 565 -54 callgsubr
          121 -402 rlineto
          -115 -67 -49 -69 -100 vvcurveto
          -123 96 -83 141 42 46 7 9 26 vhcurveto
          121 vlineto
          -4 -17 -30 -4 -25 hhcurveto
          -75 -51 44 64 83 61 60 130 46 hvcurveto
          endchar
        </CharString>
        <CharString name="Aring">
          633 1852 rmoveto
          58 44 -42 -59 -59 -43 -42 -59 -58 220 callsubr
          42 58 hvcurveto
          -293 vmoveto
          130 callsubr
          -208 -994 -105 callgsubr
        </CharString>
        <CharString name="Aringacute">
          852 2158 rmoveto
          -174 hlineto
          -118 -175 rlineto
          153 hlineto
          -80 -151 rmoveto
          58 44 -43 -59 -58 -43 -43 -59 -58 220 callsubr
          43 58 hvcurveto
          -294 vmoveto
          129 callgsubr
          -208 -973 -105 callgsubr
        </CharString>
        <CharString name="Aringbelow">
          633 -469 rmoveto
          -67 -51 53 69 69 51 53 67 67 51 -53 -69 -69 -51 -53 -67 hvcurveto
          353 vmoveto
          -124 -102 -104 -127 -127 102 -104 124 124 102 104 127 127 -102 104 -124 hvcurveto
          -208 681 -54 callgsubr
          125 -414 rlineto
          endchar
        </CharString>
        <CharString name="Atilde">
          872 1888 rmoveto
          -95 -4 -37 -50 -58 -92 -33 157 -163 hhcurveto
          -129 -85 -102 -168 hvcurveto
          124 hlineto
          98 3 35 48 60 104 28 -156 156 hhcurveto
          127 87 196 callsubr
          -570 -1323 -105 callgsubr
        </CharString>
        <CharString name="B">
          -97 callsubr
          endchar
        </CharString>
        <CharString name="Bdotaccent">
          -97 callsubr
          -38 1487 rmoveto
          46 callsubr
        </CharString>
        <CharString name="Bdotbelow">
          -97 callsubr
          -38 -604 rmoveto
          86 callsubr
        </CharString>
        <CharString name="Becyrillic">
          355 711 rmoveto
          297 hlineto
          204 122 -102 -174 -174 -121 -102 -205 hvcurveto
          -297 hlineto
          708 vmoveto
          414 673 162 -850 -65 callgsubr
          516 vlineto
          277 188 175 259 258 -191 175 -277 hvcurveto
          endchar
        </CharString>
        <CharString name="Betagreek">
          -97 callsubr
          endchar
        </CharString>
        <CharString name="Blinebelow">
          -97 callsubr
          292 -548 -80 callsubr
        </CharString>
        <CharString name="C">
          666 137 rmoveto
          13 callgsubr
          257 vlineto
          -93 callsubr
          endchar
        </CharString>
        <CharString name="Cacute">
          666 137 rmoveto
          13 callgsubr
          257 vlineto
          -93 callsubr
          -122 1475 -41 callgsubr
          endchar
        </CharString>
        <CharString name="Ccaron">
          1027 -28 callgsubr
          286 -309 rlineto
          160 hlineto
          -430 -760 rmoveto
          -5 callgsubr
        </CharString>
        <CharString name="Ccedilla">
          310 850 -72 callsubr
        </CharString>
        <CharString name="Ccedillaacute">
          1052 50 callgsubr
          186 hlineto
          -420 -762 -72 callsubr
        </CharString>
        <CharString name="Ccircumflex">
          666 137 rmoveto
          13 callgsubr
          257 vlineto
          -93 callsubr
          74 1784 rmoveto
          -160 hlineto
          -286 24 callsubr
        </CharString>
        <CharString name="Cdotaccent">
          666 137 rmoveto
          13 callgsubr
          257 vlineto
          -93 callsubr
          -6 1503 rmoveto
          46 callsubr
        </CharString>
        <CharString name="Checyrillic">
          1121 101 callsubr
          -176 -628 hlineto
          -24 callsubr
          -636 176 hlineto
          endchar
        </CharString>
        <CharString name="Chigreek">
          -63 callsubr
          endchar
        </CharString>
        <CharString name="D">
          -74 callgsubr
          endchar
        </CharString>
        <CharString name="Dcaron">
          951 -28 callgsubr
          286 -309 rlineto
          160 hlineto
          -327 -329 rmoveto
          211 hlineto
          305 146 -180 -378 -382 -145 -179 -306 hvcurveto
          -211 hlineto
          -177 1281 185 callsubr
          404 vlineto
          409 206 242 482 478 -206 241 -409 hvcurveto
          endchar
        </CharString>
        <CharString name="Dcircumflexbelow">
          -74 callgsubr
          147 -328 rmoveto
          -274 -342 rlineto
          195 61 callgsubr
          194 hlineto
          -274 342 rlineto
          endchar
        </CharString>
        <CharString name="Dcommaaccent">
          -74 callgsubr
          218 -665 20 callsubr
        </CharString>
        <CharString name="Dcroat">
          343 157 rmoveto
          506 279 152 -279 471 207 vlineto
          307 145 -181 -382 -388 -143 -178 -307 hvcurveto
          -379 1286 rmoveto
          -628 -149 -152 149 -663 391 vlineto
          410 205 242 482 478 -206 241 -409 hvcurveto
          endchar
        </CharString>
        <CharString name="Ddotaccent">
          -74 callgsubr
          247 1478 rmoveto
          46 callsubr
        </CharString>
        <CharString name="Ddotbelow">
          -74 callgsubr
          247 -613 rmoveto
          86 callsubr
        </CharString>
        <CharString name="Decyrillic">
          1084 hmoveto
          -285 162 447 -160 1281 -795 vlineto
          -49 -898 -12 -218 -40 -112 -84 -53 rlinecurve
          -87 -447 163 285 hlineto
          266 1281 rmoveto
          462 -1119 -596 15 hlineto
          55 69 27 103 10 185 rrcurveto
          endchar
        </CharString>
        <CharString name="Deltagreek">
          90 hmoveto
          1086 119 hlineto
          -449 1324 rlineto
          -188 hlineto
          -449 -1324 rlineto
          190 43 rmoveto
          14 vlineto
          348 1057 rlineto
          5 hlineto
          347 -1057 rlineto
          -14 vlineto
          endchar
        </CharString>
        <CharString name="Djecyrillic">
          768 -14 rmoveto
          -9 21 49 -7 44 hhcurveto
          230 144 176 286 280 -153 182 -247 -150 -95 -56 -48 -51 hvcurveto
          -12 492 385 161 -933 -161 379 -1282 169 607 hlineto
          60 49 98 64 132 hhcurveto
          158 98 -118 -187 -184 -84 -110 -134 -38 -39 5 7 -20 hvcurveto
          endchar
        </CharString>
        <CharString name="Dlinebelow">
          -74 callgsubr
          577 -557 -80 callsubr
        </CharString>
        <CharString name="Dzecyrillic">
          139 384 -104 callgsubr
          endchar
        </CharString>
        <CharString name="Dzhecyrillic">
          550 -285 rmoveto
          166 285 436 1443 -177 -1281 -684 1281 -177 -65 callgsubr
          436 hlineto
          endchar
        </CharString>
        <CharString name="E">
          1082 162 -55 callsubr
        </CharString>
        <CharString name="Eacute">
          1082 162 -101 callgsubr
          -546 114 callsubr
          endchar
        </CharString>
        <CharString name="Ebreve">
          1082 162 -101 callgsubr
          -771 1918 -21 callsubr
        </CharString>
        <CharString name="Ecaron">
          1022 103 callgsubr
          346 -1448 -55 callsubr
        </CharString>
        <CharString name="Ecedilla">
          1082 1281 rmoveto
          162 -852 -65 callgsubr
          372 3 callsubr
          -129 1 hvcurveto
          53 132 rlineto
          349 162 -675 496 638 155 -638 468 hlineto
          endchar
        </CharString>
        <CharString name="Ecedillabreve">
          863 3 callgsubr
          81 -637 rmoveto
          162 -852 -65 callgsubr
          372 3 callsubr
          -129 1 hvcurveto
          53 132 rlineto
          349 162 -675 496 638 155 -638 468 hlineto
          endchar
        </CharString>
        <CharString name="Ecircumflex">
          23 callsubr
          endchar
        </CharString>
        <CharString name="Ecircumflexacute">
          1082 162 -101 callgsubr
          -224 1844 rmoveto
          170 hlineto
          234 239 rlineto
          -191 hlineto
          -325 -270 -74 callsubr
          endchar
        </CharString>
        <CharString name="Ecircumflexbelow">
          1082 162 -101 callgsubr
          -526 88 callgsubr
        </CharString>
        <CharString name="Ecircumflexdotbelow">
          23 callsubr
          -366 -2048 rmoveto
          46 callsubr
        </CharString>
        <CharString name="Ecircumflexgrave">
          1082 162 -101 callgsubr
          11 1844 209 callsubr
          -192 hlineto
          235 -239 rlineto
          -177 -31 -74 callsubr
          endchar
        </CharString>
        <CharString name="Ecircumflexhookabove">
          1082 162 -101 callgsubr
          -303 1991 rmoveto
          89 callgsubr
          -52 -21 hvcurveto
          81 -70 rlineto
          55 callsubr
          -33 -279 -74 callsubr
          endchar
        </CharString>
        <CharString name="Ecircumflextilde">
          1082 162 -101 callgsubr
          -336 1813 -46 callgsubr
        </CharString>
        <CharString name="Ecyrillic">
          310 658 -10 callgsubr
        </CharString>
        <CharString name="Edblgrave">
          675 26 callgsubr
          492 -1450 -55 callsubr
        </CharString>
        <CharString name="Edieresis">
          1082 162 -101 callgsubr
          -628 1651 -94 callsubr
        </CharString>
        <CharString name="Edotaccent">
          1082 162 -101 callgsubr
          -424 1640 rmoveto
          46 callsubr
        </CharString>
        <CharString name="Edotbelow">
          1082 162 -101 callgsubr
          -426 -436 rmoveto
          46 callsubr
        </CharString>
        <CharString name="Efcyrillic">
          548 -21 rmoveto
          170 159 hlineto
          335 7 203 219 361 vvcurveto
          358 -203 219 -335 9 vhcurveto
          153 -170 -153 vlineto
          -335 -9 -203 -219 -358 vvcurveto
          -361 203 -219 335 -7 vhcurveto
          -368 587 rmoveto
          264 141 164 229 8 vhcurveto
          -873 vlineto
          -229 7 -141 164 266 vvcurveto
          536 436 rmoveto
          229 -8 141 -164 -264 vvcurveto
          -266 -141 -164 -229 -7 vhcurveto
          endchar
        </CharString>
        <CharString name="Egrave">
          469 6 callsubr
          312 -1450 -55 callsubr
        </CharString>
        <CharString name="Ehookabove">
          1082 162 -101 callgsubr
          -599 -61 callgsubr
          endchar
        </CharString>
        <CharString name="Einvertedbreve">
          449 -24 callgsubr
          771 -1447 -55 callsubr
        </CharString>
        <CharString name="Elcyrillic">
          1123 101 callsubr
          -825 hlineto
          53 callsubr
          174 hlineto
          endchar
        </CharString>
        <CharString name="Emacron">
          1082 162 -101 callgsubr
          -96 116 callgsubr
          endchar
        </CharString>
        <CharString name="Emacronacute">
          702 1851 46 callgsubr
          758 -1452 -55 callsubr
        </CharString>
        <CharString name="Emacrongrave">
          1082 162 -101 callgsubr
          -95 1615 39 callsubr
        </CharString>
        <CharString name="Emcyrillic">
          -77 callsubr
          endchar
        </CharString>
        <CharString name="Encyrillic">
          1113 hmoveto
          -58 callsubr
          endchar
        </CharString>
        <CharString name="Eogonek">
          891 hmoveto
          -14 vlineto
          -96 -58 -47 -71 -86 vvcurveto
          -118 97 -83 138 40 38 6 11 29 vhcurveto
          120 vlineto
          -4 -17 -27 -4 -24 hhcurveto
          -71 -52 47 63 78 52 67 116 48 hvcurveto
          15 6 rlineto
          154 -675 496 638 155 -638 468 675 162 -852 184 callsubr
        </CharString>
        <CharString name="Epsilongreek">
          1082 162 -55 callsubr
        </CharString>
        <CharString name="Epsilontonosgreek">
          1114 162 rmoveto
          -490 496 453 155 -453 468 490 162 -664 -65 callgsubr
          664 hlineto
          -1055 115 callgsubr
          -180 hlineto
          endchar
        </CharString>
        <CharString name="Ercyrillic">
          -67 callsubr
          endchar
        </CharString>
        <CharString name="Ereversedcyrillic">
          250 983 -93 callgsubr
        </CharString>
        <CharString name="Escyrillic">
          666 137 rmoveto
          13 callgsubr
          257 vlineto
          -93 callsubr
          endchar
        </CharString>
        <CharString name="Etagreek">
          1113 hmoveto
          -58 callsubr
          endchar
        </CharString>
        <CharString name="Etatonosgreek">
          1170 hmoveto
          1443 -160 -626 -427 626 -160 -65 callgsubr
          160 658 427 -658 vlineto
          -971 115 callgsubr
          -179 hlineto
          endchar
        </CharString>
        <CharString name="Eth">
          337 162 rmoveto
          496 261 157 -261 466 211 vlineto
          305 146 -180 -378 -382 -145 -179 -306 hvcurveto
          -388 1281 rmoveto
          -628 -135 -157 135 -658 404 vlineto
          409 206 242 482 478 -206 241 -409 hvcurveto
          endchar
        </CharString>
        <CharString name="Etilde">
          1082 162 -101 callgsubr
          -278 1620 rmoveto
          127 86 196 callsubr
          -122 hlineto
          -95 -4 -37 -50 -58 -92 -33 157 -163 hhcurveto
          -129 -85 -102 -168 hvcurveto
          124 hlineto
          98 3 35 48 60 104 28 -156 156 hhcurveto
          endchar
        </CharString>
        <CharString name="Etildebelow">
          1082 162 -101 callgsubr
          -568 -294 rmoveto
          86 42 -158 -44 callgsubr
          182 hvcurveto
          -140 hlineto
          -108 -26 -47 180 callsubr
          -182 hvcurveto
          140 hlineto
          109 26 48 61 vhcurveto
          endchar
        </CharString>
        <CharString name="Euro">
          1195 -15 rmoveto
          164 vlineto
          -5 -37 -47 -3 -50 hhcurveto
          -297 -183 123 244 -71 hvcurveto
          544 120 -570 hlineto
          -3 32 -1 30 32 vvcurveto
          28 1 29 3 32 vhcurveto
          570 120 -545 hlineto
          247 70 183 124 300 hhcurveto
          60 38 -3 -5 31 hvcurveto
          163 vlineto
          6 -35 -55 4 -46 hhcurveto
          -410 -251 -182 -354 -73 hvcurveto
          -221 -120 204 hlineto
          -2 -25 -1 -30 -34 vvcurveto
          -38 1 -30 3 -26 vhcurveto
          -205 -120 222 hlineto
          -351 74 250 -180 409 hhcurveto
          47 53 3 5 40 hvcurveto
          endchar
        </CharString>
        <CharString name="F">
          60 callgsubr
          endchar
        </CharString>
        <CharString name="Fdotaccent">
          60 callgsubr
          382 1640 rmoveto
          -59 callgsubr
          58 -68 -67 -59 -58 -70 -70 59 -59 67 hvcurveto
          endchar
        </CharString>
        <CharString name="G">
          976 442 -100 callgsubr
          endchar
        </CharString>
        <CharString name="Gacute">
          976 442 -100 callgsubr
          -437 1029 -4 callsubr
          endchar
        </CharString>
        <CharString name="Gammagreek">
          257 hmoveto
          177 1281 674 162 -851 hlineto
          endchar
        </CharString>
        <CharString name="Gbreve">
          976 442 -100 callgsubr
          -675 1335 80 callsubr
        </CharString>
        <CharString name="Gcaron">
          1013 -28 callgsubr
          287 -309 rlineto
          160 hlineto
          249 -1168 -100 callgsubr
          endchar
        </CharString>
        <CharString name="Gcircumflex">
          976 442 -100 callgsubr
          -249 1338 rmoveto
          -160 hlineto
          -287 24 callsubr
        </CharString>
        <CharString name="Gcommaaccent">
          976 442 -100 callgsubr
          -353 -1086 20 callsubr
        </CharString>
        <CharString name="Gdotaccent">
          976 442 -100 callgsubr
          -329 1057 rmoveto
          46 callsubr
        </CharString>
        <CharString name="Gecyrillic">
          1229 1443 96 callsubr
        </CharString>
        <CharString name="Geupturncyrillic">
          1070 1719 rmoveto
          -276 -988 -162 248 -1119 -248 -162 700 162 -273 1118 561 -261 162 700 vlineto
          endchar
        </CharString>
        <CharString name="Gjecyrillic">
          1061 50 callgsubr
          186 hlineto
          490 -169 96 callsubr
        </CharString>
        <CharString name="Gmacron">
          976 442 -100 callgsubr
          1 1113 -80 callsubr
        </CharString>
        <CharString name="H">
          1113 hmoveto
          -58 callsubr
          endchar
        </CharString>
        <CharString name="Hardsigncyrillic">
          498 749 rmoveto
          257 hlineto
          182 108 -110 -185 -186 -107 -109 -183 hvcurveto
          -257 hlineto
          748 vmoveto
          536 -474 -162 297 -1281 475 vlineto
          254 173 183 270 271 -175 183 -258 hvcurveto
          endchar
        </CharString>
        <CharString name="Hbar">
          335 816 rmoveto
          270 595 -270 vlineto
          -593 -160 rmoveto
          591 -656 177 1084 120 138 -120 221 -177 -221 -591 221 -177 -221 -119 -138 119 -1084 177 hlineto
          endchar
        </CharString>
        <CharString name="Hbrevebelow">
          1113 hmoveto
          -58 callsubr
          -305 -340 rmoveto
          -131 -73 85 115 hvcurveto
          -152 48 callgsubr
          -152 hlineto
          -115 126 callsubr
          endchar
        </CharString>
        <CharString name="Hcaron">
          999 -54 callsubr
          400 -1610 rmoveto
          -58 callsubr
          endchar
        </CharString>
        <CharString name="Hcedilla">
          938 101 callsubr
          -625 -610 625 -175 -65 callgsubr
          44 vlineto
          -61 -150 rlineto
          -86 57 vlineto
          103 41 -19 -46 -47 -40 -25 -74 94 callsubr
          656 610 -656 175 1443 vlineto
          endchar
        </CharString>
        <CharString name="Hcircumflex">
          1113 hmoveto
          -58 callsubr
          -225 1921 -48 callsubr
          179 hlineto
          endchar
        </CharString>
        <CharString name="Hdieresis">
          1113 hmoveto
          -58 callsubr
          -507 1651 -94 callsubr
        </CharString>
        <CharString name="Hdotaccent">
          1113 hmoveto
          -58 callsubr
          -305 1640 rmoveto
          46 callsubr
        </CharString>
        <CharString name="Hdotbelow">
          1113 hmoveto
          -58 callsubr
          -305 36 callsubr
          endchar
        </CharString>
        <CharString name="I">
          1013 hmoveto
          15 callsubr
        </CharString>
        <CharString name="IAcyrillic">
          967 562 -71 callgsubr
        </CharString>
        <CharString name="IJ">
          384 hmoveto
          24 callgsubr
        </CharString>
        <CharString name="IJacute">
          229 114 callsubr
          316 -304 -41 callgsubr
          -763 -1916 rmoveto
          24 callgsubr
        </CharString>
        <CharString name="IUcyrillic">
          792 1311 -83 callgsubr
        </CharString>
        <CharString name="Iacute">
          1013 hmoveto
          -91 callsubr
          264 1612 31 callsubr
          endchar
        </CharString>
        <CharString name="Ibreve">
          1013 hmoveto
          -91 callsubr
          35 1918 -21 callsubr
        </CharString>
        <CharString name="Icaron">
          999 -54 callsubr
          300 -1610 11 callsubr
        </CharString>
        <CharString name="Icircumflex">
          1013 hmoveto
          -91 callsubr
          460 1921 -48 callsubr
          179 hlineto
          endchar
        </CharString>
        <CharString name="Icyrillic">
          1013 hmoveto
          15 callsubr
        </CharString>
        <CharString name="Idblgrave">
          652 26 callgsubr
          446 -1612 11 callsubr
        </CharString>
        <CharString name="Idieresis">
          1013 hmoveto
          -91 callsubr
          178 1651 -94 callsubr
        </CharString>
        <CharString name="Idieresisacute">
          1013 hmoveto
          -91 callsubr
          255 1859 rmoveto
          170 hlineto
          233 224 178 callsubr
          -277 -517 5 callsubr
        </CharString>
        <CharString name="Idotaccent">
          1013 hmoveto
          -91 callsubr
          380 1640 rmoveto
          46 callsubr
        </CharString>
        <CharString name="Idotbelow">
          1013 hmoveto
          -91 callsubr
          379 36 callsubr
          endchar
        </CharString>
        <CharString name="Iecyrillic">
          1082 162 -55 callsubr
        </CharString>
        <CharString name="Igrave">
          446 6 callsubr
          266 -1612 11 callsubr
        </CharString>
        <CharString name="Ihookabove">
          1013 hmoveto
          -91 callsubr
          207 -61 callgsubr
          endchar
        </CharString>
        <CharString name="Iicyrillic">
          152 1443 -49 callgsubr
        </CharString>
        <CharString name="Iinvertedbreve">
          426 -24 callgsubr
          725 -1609 11 callsubr
        </CharString>
        <CharString name="Iishortcyrillic">
          302 1924 -68 callgsubr
          -294 -481 -49 callgsubr
        </CharString>
        <CharString name="Imacron">
          1013 hmoveto
          -91 callsubr
          710 116 callgsubr
          endchar
        </CharString>
        <CharString name="Iocyrillic">
          1082 162 -101 callgsubr
          -628 1651 -94 callsubr
        </CharString>
        <CharString name="Iogonek">
          1013 1286 rmoveto
          157 -760 -157 292 -1129 -292 -157 597 vlineto
          -98 -58 -55 -87 -97 vvcurveto
          -112 85 -76 124 38 39 6 11 30 vhcurveto
          123 vlineto
          -5 -15 -25 -3 -21 hhcurveto
          -65 -42 38 58 73 53 65 111 62 hvcurveto
          4 2 rlineto
          157 -292 1129 vlineto
          endchar
        </CharString>
        <CharString name="Iotadieresisgreek">
          1013 hmoveto
          -91 callsubr
          178 1651 -94 callsubr
        </CharString>
        <CharString name="Iotagreek">
          1013 hmoveto
          15 callsubr
        </CharString>
        <CharString name="Iotatonosgreek">
          1184 hmoveto
          157 -276 1129 276 157 -716 -157 275 -1129 -275 -157 vlineto
          -365 115 callgsubr
          -179 hlineto
          endchar
        </CharString>
        <CharString name="Iotatonosgreek.1">
          867 hmoveto
          1443 -176 186 callsubr
          -527 115 callgsubr
          -180 hlineto
          endchar
        </CharString>
        <CharString name="Itilde">
          1013 hmoveto
          -91 callsubr
          528 44 callsubr
        </CharString>
        <CharString name="Itildebelow">
          1013 hmoveto
          -91 callsubr
          237 -310 41 callsubr
        </CharString>
        <CharString name="J">
          -17 callsubr
          endchar
        </CharString>
        <CharString name="Jcircumflex">
          -17 callsubr
          171 1951 rmoveto
          -160 hlineto
          -287 24 callsubr
        </CharString>
        <CharString name="Jecyrillic">
          -17 callsubr
          endchar
        </CharString>
        <CharString name="K">
          389 hmoveto
          -73 callgsubr
          endchar
        </CharString>
        <CharString name="Kacute">
          389 hmoveto
          -73 callgsubr
          331 114 callsubr
          endchar
        </CharString>
        <CharString name="Kacyrillic">
          332 101 callsubr
          220 callgsubr
          657 44 hlineto
          624 -657 rlineto
          224 hlineto
          -699 743 646 700 rlineto
          -210 hlineto
          -585 -640 rlineto
          -44 hlineto
          endchar
        </CharString>
        <CharString name="Kappagreek">
          389 hmoveto
          -73 callgsubr
          endchar
        </CharString>
        <CharString name="Kcaron">
          1030 -28 callgsubr
          286 -309 rlineto
          160 hlineto
          -354 -1610 rmoveto
          -73 callgsubr
          endchar
        </CharString>
        <CharString name="Kcommaaccent">
          389 hmoveto
          -73 callgsubr
          430 -503 20 callsubr
        </CharString>
        <CharString name="Kdotbelow">
          389 hmoveto
          -73 callgsubr
          468 36 callsubr
          endchar
        </CharString>
        <CharString name="Kjecyrillic">
          523 114 callsubr
          -492 -473 rmoveto
          220 callgsubr
          657 44 hlineto
          624 -657 rlineto
          224 hlineto
          -699 743 646 700 rlineto
          -210 hlineto
          -585 -640 rlineto
          -44 hlineto
          endchar
        </CharString>
        <CharString name="Klinebelow">
          389 hmoveto
          -73 callgsubr
          798 -395 -80 callsubr
        </CharString>
        <CharString name="L">
          -22 callsubr
          endchar
        </CharString>
        <CharString name="Lacute">
          -22 callsubr
          -887 114 callsubr
          endchar
        </CharString>
        <CharString name="Lambdagreek">
          91 hmoveto
          179 hlineto
          358 1227 rlineto
          5 hlineto
          357 -1227 rlineto
          185 hlineto
          -448 -56 callgsubr
          endchar
        </CharString>
        <CharString name="Lcaron">
          780 101 callsubr
          -481 119 vlineto
          38 481 rlineto
          185 -1279 rmoveto
          -684 1279 -175 -65 callgsubr
          859 hlineto
          endchar
        </CharString>
        <CharString name="Lcircumflexbelow">
          -22 callsubr
          -531 -166 rmoveto
          -273 111 callgsubr
        </CharString>
        <CharString name="Lcommaaccent">
          -22 callsubr
          -460 -503 20 callsubr
        </CharString>
        <CharString name="Ldot">
          -22 callsubr
          -152 862 40 callgsubr
        </CharString>
        <CharString name="Ldotbelow">
          -22 callsubr
          -430 36 callsubr
          endchar
        </CharString>
        <CharString name="Ldotbelowmacron">
          -22 callsubr
          -430 36 callsubr
          -11 2147 -80 callsubr
        </CharString>
        <CharString name="Ljecyrillic">
          764 749 rmoveto
          108 hlineto
          144 85 -109 -186 -187 -85 -108 -144 hvcurveto
          -108 hlineto
          -387 1128 rmoveto
          226 -1287 303 hlineto
          216 144 177 276 276 -144 178 -216 hvcurveto
          -138 536 -544 hlineto
          -34 -914 rlineto
          -275 -11 -36 -99 -91 hhcurveto
          -19 -20 4 3 -13 230 callgsubr
          -7 18 26 -4 29 hhcurveto
          179 78 154 378 15 hvcurveto
          endchar
        </CharString>
        <CharString name="Llinebelow">
          -22 callsubr
          -100 -395 -80 callsubr
        </CharString>
        <CharString name="Lslash">
          438 164 rmoveto
          508 vlineto
          498 282 rlineto
          162 vlineto
          -498 -286 rlineto
          613 -175 -714 vlineto
          -177 -102 rlineto
          -154 vlineto
          177 100 rlineto
          -573 859 164 vlineto
          endchar
        </CharString>
        <CharString name="M">
          -77 callsubr
          endchar
        </CharString>
        <CharString name="Macute">
          -77 callsubr
          260 1612 rmoveto
          185 hlineto
          322 145 callgsubr
          endchar
        </CharString>
        <CharString name="Mdotaccent">
          -77 callsubr
          376 1640 rmoveto
          46 callsubr
        </CharString>
        <CharString name="Mdotbelow">
          -77 callsubr
          376 36 callsubr
          endchar
        </CharString>
        <CharString name="Mugreek">
          -77 callsubr
          endchar
        </CharString>
        <CharString name="N">
          312 hmoveto
          87 callsubr
        </CharString>
        <CharString name="Nacute">
          312 hmoveto
          -76 callgsubr
          361 1612 -4 callsubr
          endchar
        </CharString>
        <CharString name="Ncaron">
          996 -28 callgsubr
          287 -309 rlineto
          160 hlineto
          -398 -1610 86 callgsubr
        </CharString>
        <CharString name="Ncircumflexbelow">
          312 hmoveto
          -76 callgsubr
          378 -166 rmoveto
          -274 -342 rlineto
          195 61 callgsubr
          194 hlineto
          -273 342 rlineto
          endchar
        </CharString>
        <CharString name="Ncommaaccent">
          312 hmoveto
          -76 callgsubr
          438 -503 rmoveto
          130 16 callgsubr
          endchar
        </CharString>
        <CharString name="Ndotaccent">
          312 hmoveto
          -76 callgsubr
          477 1640 rmoveto
          46 callsubr
        </CharString>
        <CharString name="Ndotbelow">
          312 hmoveto
          -76 callgsubr
          478 36 callsubr
          endchar
        </CharString>
        <CharString name="Ngrave">
          443 6 callsubr
          -432 -1612 86 callgsubr
        </CharString>
        <CharString name="Njecyrillic">
          751 665 rmoveto
          95 hlineto
          140 81 -92 -159 -167 -83 -100 -138 hvcurveto
          -95 hlineto
          -501 -147 rmoveto
          662 340 -662 286 vlineto
          213 140 164 253 242 -141 158 -214 hvcurveto
          -121 626 -163 -626 -340 626 -157 79 callsubr
          endchar
        </CharString>
        <CharString name="Nlinebelow">
          312 hmoveto
          -76 callgsubr
          808 -395 -80 callsubr
        </CharString>
        <CharString name="Ntilde">
          312 hmoveto
          -76 callgsubr
          625 1620 rmoveto
          127 86 196 callsubr
          -123 hlineto
          -95 -4 -36 -50 -58 -92 -33 157 -164 hhcurveto
          -128 -85 -102 -168 hvcurveto
          124 hlineto
          98 3 35 48 60 104 28 -156 156 hhcurveto
          endchar
        </CharString>
        <CharString name="Nugreek">
          312 hmoveto
          87 callsubr
        </CharString>
        <CharString name="NumberSignCyrillic">
          217 hmoveto
          1092 18 vlineto
          315 179 callsubr
          -313 1090 rlineto
          -173 79 callsubr
          959 1112 rmoveto
          95 76 77 95 95 -76 77 -95 -95 -76 -77 -95 -95 76 -77 95 hvcurveto
          167 -269 rmoveto
          124 -336 -124 vlineto
          endchar
        </CharString>
        <CharString name="O">
          -106 callgsubr
          endchar
        </CharString>
        <CharString name="OE">
          194 822 rmoveto
          343 68 142 165 163 74 -158 -351 vhcurveto
          -153 vlineto
          -350 -74 -158 -163 -165 -68 142 342 vhcurveto
          480 -416 rmoveto
          15 -205 568 161 -423 496 388 159 -388 465 423 162 -568 -207 -15 hlineto
          162 -41 -94 79 -153 hhcurveto
          -247 -118 -208 -436 hvcurveto
          -222 vlineto
          -437 118 -207 247 155 94 78 160 39 vhcurveto
          endchar
        </CharString>
        <CharString name="Oacute">
          -106 callgsubr
          -116 1475 31 callsubr
          endchar
        </CharString>
        <CharString name="Obreve">
          -106 callgsubr
          -345 1781 -21 callsubr
        </CharString>
        <CharString name="Ocaron">
          999 -54 callsubr
          -431 -773 -99 callsubr
        </CharString>
        <CharString name="Ocircumflex">
          -106 callgsubr
          80 1784 -48 callsubr
          179 hlineto
          endchar
        </CharString>
        <CharString name="Ocircumflexacute">
          -106 callgsubr
          202 1707 rmoveto
          170 hlineto
          235 239 rlineto
          -192 hlineto
          -325 -270 -74 callsubr
          endchar
        </CharString>
        <CharString name="Ocircumflexdotbelow">
          -106 callgsubr
          80 1784 -48 callsubr
          179 hlineto
          -366 -2063 rmoveto
          86 callsubr
        </CharString>
        <CharString name="Ocircumflexgrave">
          -106 callgsubr
          437 1707 209 callsubr
          -191 hlineto
          234 -239 rlineto
          -177 -31 -74 callsubr
          endchar
        </CharString>
        <CharString name="Ocircumflexhookabove">
          -106 callgsubr
          123 1854 rmoveto
          89 callgsubr
          -51 -21 hvcurveto
          80 -70 rlineto
          55 callsubr
          -33 -279 -74 callsubr
          endchar
        </CharString>
        <CharString name="Ocircumflextilde">
          -106 callgsubr
          90 1676 -46 callgsubr
        </CharString>
        <CharString name="Ocyrillic">
          -106 callgsubr
          endchar
        </CharString>
        <CharString name="Odblgrave">
          652 26 callgsubr
          -285 -775 -99 callsubr
        </CharString>
        <CharString name="Odieresis">
          -106 callgsubr
          -202 1514 -94 callsubr
        </CharString>
        <CharString name="Odieresismacron">
          828 1787 rmoveto
          -59 -48 -49 -62 -61 48 -49 59 42 callsubr
          51 callgsubr
          59 155 callsubr
          hvcurveto
          -157 -950 -99 callsubr
        </CharString>
        <CharString name="Odotaccent">
          -106 callgsubr
          1503 40 callsubr
        </CharString>
        <CharString name="Odotaccentmacron">
          83 callgsubr
          -20 -1214 -99 callsubr
        </CharString>
        <CharString name="Odotbelow">
          -106 callgsubr
          -588 81 callgsubr
        </CharString>
        <CharString name="Ograve">
          446 6 callsubr
          -465 -775 -99 callsubr
        </CharString>
        <CharString name="Ohookabove">
          -106 callgsubr
          -173 1679 -57 callsubr
          endchar
        </CharString>
        <CharString name="Ohorn">
          633 -30 -84 callgsubr
        </CharString>
        <CharString name="Ohornacute">
          445 114 callsubr
          -113 -1946 -84 callgsubr
        </CharString>
        <CharString name="Ohorndotbelow">
          633 -30 -84 callsubr
          -588 81 callgsubr
        </CharString>
        <CharString name="Ohorngrave">
          282 837 rmoveto
          298 129 171 222 222 129 -171 -298 221 callgsubr
          -298 -129 -171 -222 -222 -129 171 298 vhcurveto
          880 232 rmoveto
          216 -63 166 -106 76 vhcurveto
          11 70 vlineto
          132 73 65 117 hvcurveto
          187 -147 -139 vlineto
          -76 -35 -27 -100 vhcurveto
          -145 -76 39 -132 hhcurveto
          -330 -199 -239 -396 hvcurveto
          -233 vlineto
          -396 199 -239 330 330 199 239 396 vhcurveto
          -682 1311 rmoveto
          -207 hlineto
          322 -304 rlineto
          186 hlineto
          endchar
        </CharString>
        <CharString name="Ohornhookabove">
          59 callsubr
          173 -1959 -84 callgsubr
        </CharString>
        <CharString name="Ohorntilde">
          781 1620 -71 callsubr
          -148 -1650 -84 callgsubr
        </CharString>
        <CharString name="Ohungarumlaut">
          -106 callgsubr
          39 1475 143 callsubr
          -673 -304 143 callsubr
          endchar
        </CharString>
        <CharString name="Oinvertedbreve">
          426 -24 callgsubr
          -6 -772 -99 callsubr
        </CharString>
        <CharString name="Omacron">
          -106 callgsubr
          330 1559 -80 callsubr
        </CharString>
        <CharString name="Omacronacute">
          679 1851 46 callgsubr
          -19 -777 -99 callsubr
        </CharString>
        <CharString name="Omacrongrave">
          -106 callgsubr
          331 1478 39 callsubr
        </CharString>
        <CharString name="Omegagreek">
          633 1473 rmoveto
          -369 -211 -247 -431 -287 116 -219 213 -116 hvcurveto
          -14 -338 -159 521 205 vlineto
          -230 118 -108 180 282 vvcurveto
          346 138 175 268 268 137 -175 -346 -282 -107 -180 -230 -118 vhcurveto
          -205 521 159 -338 14 vlineto
          213 116 116 219 287 vvcurveto
          431 -211 247 -369 vhcurveto
          endchar
        </CharString>
        <CharString name="Omegatonosgreek">
          732 1473 rmoveto
          -313 -177 -244 -431 -294 97 -227 181 -111 hvcurveto
          -14 -279 -152 432 219 vlineto
          -184 114 -82 166 295 vvcurveto
          344 109 168 216 217 109 -168 -344 -295 -82 -166 -184 -114 vhcurveto
          -219 432 152 -279 14 vlineto
          181 111 97 227 294 vvcurveto
          431 -177 244 -314 vhcurveto
          -723 -372 122 callgsubr
        </CharString>
        <CharString name="Omicrongreek">
          -106 callgsubr
          endchar
        </CharString>
        <CharString name="Omicrontonosgreek">
          1202 605 rmoveto
          233 vlineto
          410 -156 225 -281 -281 -155 -225 -410 vhcurveto
          -233 vlineto
          -410 155 -225 281 281 156 225 410 vhcurveto
          -437 -468 rmoveto
          -175 -96 160 300 hvcurveto
          249 vlineto
          300 96 160 175 175 96 -160 -300 vhcurveto
          -249 vlineto
          -300 -96 -160 -175 vhcurveto
          -704 964 rmoveto
          136 hlineto
          129 342 rlineto
          -180 hlineto
          endchar
        </CharString>
        <CharString name="Oogonek">
          633 137 -41 callsubr
        </CharString>
        <CharString name="Oogonekmacron">
          963 116 callgsubr
          330 -1559 -41 callsubr
        </CharString>
        <CharString name="Oslash">
          984 606 -36 callgsubr
        </CharString>
        <CharString name="Oslashacute">
          1019 50 callgsubr
          186 hlineto
          287 -1006 -36 callgsubr
        </CharString>
        <CharString name="Otilde">
          -106 callgsubr
          148 1483 -71 callsubr
          endchar
        </CharString>
        <CharString name="Otildeacute">
          -106 callgsubr
          -72 1757 rmoveto
          154 hlineto
          164 218 rlineto
          -177 hlineto
          72 -558 -64 callgsubr
          endchar
        </CharString>
        <CharString name="Otildedieresis">
          -106 callgsubr
          141 1417 -64 callgsubr
          -335 330 rmoveto
          57 46 46 59 59 -46 47 -57 -58 -45 -47 -59 -59 45 -46 58 hvcurveto
          388 hmoveto
          58 45 46 59 59 -45 47 -58 -57 -46 -47 -59 -59 46 -46 57 hvcurveto
          endchar
        </CharString>
        <CharString name="Otildemacron">
          -106 callgsubr
          332 1798 rmoveto
          120 -664 -120 vlineto
          473 -381 -64 callgsubr
          endchar
        </CharString>
        <CharString name="P">
          -67 callsubr
          endchar
        </CharString>
        <CharString name="Pacute">
          -67 callsubr
          93 937 -41 callgsubr
          endchar
        </CharString>
        <CharString name="Pdotaccent">
          -67 callsubr
          209 965 rmoveto
          46 callsubr
        </CharString>
        <CharString name="Pecyrillic">
          1135 101 callsubr
          -1004 -65 callgsubr
          177 1280 650 -1280 177 hlineto
          endchar
        </CharString>
        <CharString name="Phigreek">
          550 -74 rmoveto
          166 147 hlineto
          321 13 141 callgsubr
          406 vvcurveto
          406 -172 226 -321 14 vhcurveto
          144 -166 -144 vlineto
          -321 -14 -172 -226 -406 vvcurveto
          -406 172 -226 321 -13 vhcurveto
          5 148 rmoveto
          -224 11 -111 163 323 vvcurveto
          322 111 165 224 11 vhcurveto
          156 -995 rmoveto
          995 vlineto
          223 -11 112 -165 -322 vvcurveto
          -323 -111 -163 -224 -11 vhcurveto
          endchar
        </CharString>
        <CharString name="Pigreek">
          161 hmoveto
          177 1281 590 -1281 177 1443 -944 hlineto
          endchar
        </CharString>
        <CharString name="Psigreek">
          547 hmoveto
          172 331 hlineto
          323 9 139 161 386 vvcurveto
          556 -163 -546 vlineto
          -304 -76 -100 -227 -6 vhcurveto
          956 -164 -956 vlineto
          -227 6 -76 100 304 vvcurveto
          546 -163 -556 vlineto
          -386 138 -160 324 -10 vhcurveto
          endchar
        </CharString>
        <CharString name="Q">
          280 833 rmoveto
          304 133 169 220 220 133 -169 -304 vhcurveto
          -229 vlineto
          -149 -32 -117 -59 -80 vhcurveto
          -131 203 rlineto
          -188 hlineto
          195 -302 rlineto
          -18 -41 -46 -9 -51 hhcurveto
          -220 -133 169 303 hvcurveto
          887 -769 rmoveto
          -175 272 rlineto
          109 109 61 170 219 vvcurveto
          -9 callsubr
          -233 vlineto
          -399 201 -236 328 85 77 16 31 67 vhcurveto
          117 -182 rlineto
          endchar
        </CharString>
        <CharString name="R">
          -92 callgsubr
          endchar
        </CharString>
        <CharString name="Racute">
          -92 callgsubr
          130 1037 -41 callgsubr
          endchar
        </CharString>
        <CharString name="Rcaron">
          969 -28 callgsubr
          287 -309 rlineto
          159 hlineto
          6 -1035 -34 callsubr
        </CharString>
        <CharString name="Rcommaaccent">
          -92 callgsubr
          254 -1078 rmoveto
          129 16 callgsubr
          endchar
        </CharString>
        <CharString name="Rdblgrave">
          621 26 callsubr
          151 -1037 -34 callsubr
        </CharString>
        <CharString name="Rdotaccent">
          -92 callgsubr
          247 1065 rmoveto
          67 59 59 70 70 -59 58 -67 -68 -58 -58 -60 callsubr
          endchar
        </CharString>
        <CharString name="Rdotbelow">
          -92 callgsubr
          283 -1026 40 callgsubr
        </CharString>
        <CharString name="Rdotbelowmacron">
          -92 callgsubr
          283 -1026 rmoveto
          68 58 59 69 70 -58 59 -68 227 callsubr
          -69 -26 callgsubr
          293 2147 169 callgsubr
        </CharString>
        <CharString name="Rhogreek">
          -67 callsubr
          endchar
        </CharString>
        <CharString name="Rinvertedbreve">
          396 76 callsubr
          431 -1034 -34 callsubr
        </CharString>
        <CharString name="Rlinebelow">
          -92 callgsubr
          613 -970 -80 callsubr
        </CharString>
        <CharString name="S">
          139 384 -104 callgsubr
          endchar
        </CharString>
        <CharString name="Sacute">
          139 384 -104 callgsubr
          220 1228 31 callsubr
          endchar
        </CharString>
        <CharString name="Sacutedotaccent">
          139 384 -104 callgsubr
          313 1228 31 callsubr
          -441 -228 rmoveto
          46 callsubr
        </CharString>
        <CharString name="Scaron">
          1014 1919 rmoveto
          -180 -37 callgsubr
          160 hlineto
          -588 -1226 -104 callgsubr
          endchar
        </CharString>
        <CharString name="Scarondotaccent">
          139 384 -104 callgsubr
          336 1484 223 callsubr
          -50 -51 -65 -66 50 77 callsubr
        </CharString>
        <CharString name="Scedilla">
          620 834 rmoveto
          -188 47 -80 72 125 vvcurveto
          147 111 88 185 170 110 -88 -149 18 vhcurveto
          172 hlineto
          240 -12 -187 157 -272 hhcurveto
          -288 -185 -159 -246 -209 121 -127 268 -68 hvcurveto
          124 -31 rlineto
          195 -48 84 -75 -125 vvcurveto
          -155 -126 -100 -192 -192 -127 96 158 -18 vhcurveto
          -172 hlineto
          14 -237 168 -153 261 -21 -50 -123 rcurveline
          91 callsubr
          -41 -25 -73 -35 callgsubr
          -128 1 hvcurveto
          41 105 rlineto
          264 22 167 159 240 vvcurveto
          217 -118 122 -280 69 vhcurveto
          endchar
        </CharString>
        <CharString name="Scircumflex">
          139 384 -104 callgsubr
          416 1537 -48 callsubr
          180 hlineto
          endchar
        </CharString>
        <CharString name="Scommaaccent">
          139 384 -104 callgsubr
          307 -887 rmoveto
          129 16 callgsubr
          endchar
        </CharString>
        <CharString name="Sdotaccent">
          139 384 -104 callgsubr
          336 1256 rmoveto
          46 callsubr
        </CharString>
        <CharString name="Sdotbelow">
          139 384 -104 callgsubr
          336 -820 rmoveto
          46 callsubr
        </CharString>
        <CharString name="Sdotbelowdotaccent">
          139 384 -104 callgsubr
          336 -835 rmoveto
          -100 callsubr
          2091 40 callsubr
        </CharString>
        <CharString name="Shacyrillic">
          1192 hmoveto
          1443 -159 -1285 -321 1285 -158 -1285 -321 1285 -159 184 callsubr
        </CharString>
        <CharString name="Shchacyrillic">
          1115 -285 rmoveto
          151 443 -136 1285 -159 -1288 -303 1288 -159 -1288 -302 1288 -159 -65 callgsubr
          1067 hlineto
          endchar
        </CharString>
        <CharString name="Sigmagreek">
          134 hmoveto
          946 162 -725 14 hlineto
          347 545 rlineto
          28 vlineto
          -326 518 rlineto
          14 686 162 -909 -147 vlineto
          362 -568 -381 -601 rlineto
          endchar
        </CharString>
        <CharString name="Softsigncyrillic">
          354 749 rmoveto
          298 hlineto
          206 122 -109 222 callgsubr
          -122 -109 -206 hvcurveto
          -298 hlineto
          342 -159 rmoveto
          278 185 181 272 272 -187 182 -280 hvcurveto
          -338 536 -177 79 callsubr
          endchar
        </CharString>
        <CharString name="T">
          -9 callgsubr
          endchar
        </CharString>
        <CharString name="Taugreek">
          -9 callgsubr
          endchar
        </CharString>
        <CharString name="Tbar">
          1157 1281 rmoveto
          162 -1048 -162 436 -489 -298 -141 298 -651 176 651 298 141 -298 489 vlineto
          endchar
        </CharString>
        <CharString name="Tcaron">
          999 -54 callsubr
          8 -1610 rmoveto
          1281 436 162 -1048 -162 436 -1281 vlineto
          endchar
        </CharString>
        <CharString name="Tcedilla">
          -39 callgsubr
          34 3 callsubr
          -128 1 hvcurveto
          52 132 rlineto
          endchar
        </CharString>
        <CharString name="Tcircumflexbelow">
          -9 callgsubr
          -12 -166 -38 callsubr
          endchar
        </CharString>
        <CharString name="Tcommaaccent">
          -9 callgsubr
          55 -503 20 callsubr
        </CharString>
        <CharString name="Tdotaccent">
          -9 callgsubr
          88 1640 rmoveto
          46 callsubr
        </CharString>
        <CharString name="Tdotbelow">
          -9 callgsubr
          88 36 callsubr
          endchar
        </CharString>
        <CharString name="Tecyrillic">
          -9 callgsubr
          endchar
        </CharString>
        <CharString name="Thetagreek">
          73 callsubr
          -230 -143 179 290 229 callsubr
          290 143 179 230 230 143 -179 -290 221 callgsubr
          -290 -143 -179 -230 vhcurveto
          545 468 rmoveto
          233 vlineto
          392 -209 243 -336 -336 -209 -243 -392 vhcurveto
          -233 vlineto
          -392 209 -243 336 336 209 243 392 vhcurveto
          -794 36 rmoveto
          498 160 -498 hlineto
          endchar
        </CharString>
        <CharString name="Thorn">
          188 219 callgsubr
          181 342 345 vlineto
          253 164 172 248 247 -161 170 -253 hvcurveto
          -349 264 hlineto
          1 -429 rmoveto
          296 hlineto
          189 91 -85 -167 -169 -91 -87 -189 hvcurveto
          -296 hlineto
          endchar
        </CharString>
        <CharString name="Tlinebelow">
          -9 callgsubr
          418 -395 -80 callsubr
        </CharString>
        <CharString name="Tsecyrillic">
          1264 162 rmoveto
          -157 1281 -177 -1281 -648 1281 -177 -65 callgsubr
          997 -285 162 hlineto
          endchar
        </CharString>
        <CharString name="Tshecyrillic">
          1038 hmoveto
          173 474 hlineto
          267 -131 153 -252 -152 -95 -56 -48 -51 vhcurveto
          -12 491 356 162 -874 -162 345 -1281 173 604 hlineto
          59 48 92 66 128 hhcurveto
          173 79 -105 -172 hvcurveto
          endchar
        </CharString>
        <CharString name="U">
          -103 callgsubr
          endchar
        </CharString>
        <CharString name="Uacute">
          -103 callgsubr
          -119 1475 -41 callgsubr
          endchar
        </CharString>
        <CharString name="Ubreve">
          -103 callgsubr
          -348 1781 80 callsubr
        </CharString>
        <CharString name="Ucaron">
          997 -28 callgsubr
          287 -309 rlineto
          159 hlineto
          -409 -167 -66 callsubr
        </CharString>
        <CharString name="Ucircumflex">
          -103 callgsubr
          77 1784 rmoveto
          -159 hlineto
          -287 24 callsubr
        </CharString>
        <CharString name="Ucircumflexbelow">
          -103 callgsubr
          -103 -303 rmoveto
          -273 154 callsubr
          194 hlineto
          -273 342 rlineto
          endchar
        </CharString>
        <CharString name="Ucyrillic">
          1199 1443 -81 callsubr
          endchar
        </CharString>
        <CharString name="Udblgrave">
          649 26 callsubr
          -264 -169 -66 callsubr
        </CharString>
        <CharString name="Udieresis">
          -103 callgsubr
          -204 1514 rmoveto
          2 callsubr
          -63 -54 -55 -66 -65 54 118 callsubr
        </CharString>
        <CharString name="Udieresisacute">
          -103 callgsubr
          -128 1722 rmoveto
          171 hlineto
          233 224 rlineto
          -196 hlineto
          -276 -517 70 callsubr
        </CharString>
        <CharString name="Udieresisbelow">
          -103 callgsubr
          -204 -581 123 callgsubr
          -54 -56 33 callgsubr
          403 47 callgsubr
          endchar
        </CharString>
        <CharString name="Udieresiscaron">
          -103 callgsubr
          85 1717 rmoveto
          282 246 rlineto
          -192 hlineto
          -171 -153 rlineto
          -13 hlineto
          -171 153 rlineto
          -192 hlineto
          282 -246 rlineto
          -106 -288 70 callsubr
        </CharString>
        <CharString name="Udieresisgrave">
          437 1566 rmoveto
          59 48 49 61 62 -48 49 -59 134 callgsubr
          47 49 61 62 -47 43 callgsubr
          -276 517 rmoveto
          -196 hlineto
          233 -224 rlineto
          171 hlineto
          -457 -416 -66 callsubr
        </CharString>
        <CharString name="Udieresismacron">
          826 1787 rmoveto
          30 callsubr
          42 callsubr
          51 callgsubr
          59 59 48 49 61 62 -48 49 -59 hvcurveto
          -136 -344 -66 callsubr
        </CharString>
        <CharString name="Udotbelow">
          -103 callgsubr
          -2 -588 rmoveto
          67 59 58 70 70 -59 59 -67 75 callsubr
          hvcurveto
          endchar
        </CharString>
        <CharString name="Ugrave">
          443 114 callgsubr
          -443 -169 -66 callsubr
        </CharString>
        <CharString name="Uhookabove">
          -103 callgsubr
          -176 216 callgsubr
          41 -31 -44 -43 -42 -42 -60 -21 hvcurveto
          67 -86 rlineto
          99 38 65 79 89 vvcurveto
          109 -83 68 -127 -49 -53 -11 -14 -31 vhcurveto
          endchar
        </CharString>
        <CharString name="Uhorn">
          630 -30 -75 callgsubr
        </CharString>
        <CharString name="Uhornacute">
          479 1612 -4 callsubr
          -150 -1946 -75 callgsubr
        </CharString>
        <CharString name="Uhorndotbelow">
          69 callgsubr
          -3 421 -75 callgsubr
        </CharString>
        <CharString name="Uhorngrave">
          1133 1314 rmoveto
          51 hlineto
          125 73 68 115 hvcurveto
          201 -148 -166 vlineto
          -59 -33 -30 -65 vhcurveto
          -179 -938 hlineto
          -233 -121 -135 -206 -207 -121 135 233 vhcurveto
          938 -176 -942 vlineto
          -334 187 -197 317 316 187 197 334 vhcurveto
          -676 1415 rmoveto
          -207 hlineto
          323 -304 rlineto
          185 hlineto
          endchar
        </CharString>
        <CharString name="Uhornhookabove">
          59 callsubr
          170 -1959 -75 callgsubr
        </CharString>
        <CharString name="Uhorntilde">
          781 1620 -71 callsubr
          -151 -1650 -75 callgsubr
        </CharString>
        <CharString name="Uhungarumlaut">
          -103 callgsubr
          36 1475 72 callsubr
          -674 -304 72 callsubr
          endchar
        </CharString>
        <CharString name="Uinvertedbreve">
          424 76 callsubr
          16 -166 -66 callsubr
        </CharString>
        <CharString name="Umacron">
          -103 callgsubr
          327 1559 169 callgsubr
        </CharString>
        <CharString name="Umacrondieresis">
          -103 callgsubr
          -196 1742 rmoveto
          59 47 49 61 62 -47 43 callgsubr
          -138 -264 rmoveto
          663 120 -663 hlineto
          527 144 153 callsubr
          endchar
        </CharString>
        <CharString name="Uogonek">
          852 -428 rmoveto
          39 37 6 10 28 hvcurveto
          121 vlineto
          -5 -19 -24 -2 -25 hhcurveto
          -74 -49 46 70 72 48 64 112 79 hvcurveto
          148 106 68 146 216 vvcurveto
          942 -176 -931 vlineto
          -237 -122 -138 -210 -210 -122 138 237 vhcurveto
          931 -176 -942 vlineto
          -327 189 -204 304 48 53 12 18 33 vhcurveto
          -15 vlineto
          -92 -60 -46 -71 -83 vvcurveto
          -116 99 -83 139 vhcurveto
          endchar
        </CharString>
        <CharString name="Upsilondieresisgreek">
          -91 callgsubr
          -114 1651 -94 callsubr
        </CharString>
        <CharString name="Upsilongreek">
          -91 callgsubr
          endchar
        </CharString>
        <CharString name="Upsilontonosgreek">
          885 hmoveto
          591 vlineto
          354 852 rlineto
          -187 hlineto
          -245 -660 rlineto
          -13 hlineto
          -246 660 rlineto
          -187 hlineto
          355 -852 rlineto
          -591 vlineto
          -669 1101 122 callgsubr
        </CharString>
        <CharString name="Uring">
          -103 callgsubr
          -2 1422 rmoveto
          108 85 85 107 108 -85 84 -108 -109 -85 -84 -108 -107 85 -85 109 hvcurveto
          91 vmoveto
          -59 220 callsubr
          42 59 58 44 -42 -59 -59 -44 -42 -58 hvcurveto
          endchar
        </CharString>
        <CharString name="Ushortcyrillic">
          1199 1443 -81 callsubr
          -458 1522 60 callsubr
          -1 -76 -81 -110 hhcurveto
          219 callsubr
          hvcurveto
          endchar
        </CharString>
        <CharString name="Utilde">
          -103 callgsubr
          146 1483 rmoveto
          127 86 196 callsubr
          -123 hlineto
          -95 -4 -36 -50 -59 -91 -33 157 -164 hhcurveto
          -129 -84 -102 -168 hvcurveto
          124 hlineto
          98 3 34 48 61 104 28 -156 156 hhcurveto
          endchar
        </CharString>
        <CharString name="Utildeacute">
          -103 callgsubr
          -74 1757 rmoveto
          154 hlineto
          164 218 rlineto
          -177 hlineto
          72 -558 rmoveto
          124 87 95 145 hvcurveto
          -123 hlineto
          -78 -3 -35 -40 -55 -104 -7 131 -167 hhcurveto
          -125 -86 -92 -147 hvcurveto
          124 hlineto
          79 3 32 40 57 104 7 -133 167 hhcurveto
          endchar
        </CharString>
        <CharString name="Utildebelow">
          -103 callgsubr
          -145 -447 rmoveto
          199 callsubr
          181 hvcurveto
          -139 hlineto
          -108 -26 -47 -61 vhcurveto
          -86 -43 156 -155 hhcurveto
          -142 117 callsubr
          139 hlineto
          110 1 26 47 60 hhcurveto
          endchar
        </CharString>
        <CharString name="V">
          19 callsubr
          endchar
        </CharString>
        <CharString name="Vdotbelow">
          19 callsubr
          -381 -1894 rmoveto
          86 callsubr
        </CharString>
        <CharString name="Vecyrillic">
          -97 callsubr
          endchar
        </CharString>
        <CharString name="Vtilde">
          19 callsubr
          -233 177 -71 callsubr
          endchar
        </CharString>
        <CharString name="W">
          639 895 -94 callgsubr
          endchar
        </CharString>
        <CharString name="Wacute">
          639 895 -94 callgsubr
          -110 717 -41 callgsubr
          endchar
        </CharString>
        <CharString name="Wcircumflex">
          639 895 -94 callgsubr
          86 1026 rmoveto
          75 callgsubr
          180 hlineto
          179 200 rlineto
          14 155 callgsubr
        </CharString>
        <CharString name="Wdieresis">
          639 895 -94 callgsubr
          -196 756 rmoveto
          63 -12 callgsubr
          55 -63 -70 callgsubr
          -62 32 callsubr
          62 hvcurveto
          endchar
        </CharString>
        <CharString name="Wdotaccent">
          639 895 -94 callgsubr
          6 745 rmoveto
          46 callsubr
        </CharString>
        <CharString name="Wdotbelow">
          639 895 -94 callgsubr
          6 -1346 rmoveto
          86 callsubr
        </CharString>
        <CharString name="Wgrave">
          446 135 callsubr
          323 -304 rlineto
          185 hlineto
          -108 -717 -94 callgsubr
          endchar
        </CharString>
        <CharString name="X">
          -63 callsubr
          endchar
        </CharString>
        <CharString name="Xacyrillic">
          -63 callsubr
          endchar
        </CharString>
        <CharString name="Xdieresis">
          -63 callsubr
          -98 926 -94 callsubr
        </CharString>
        <CharString name="Xdotaccent">
          -63 callsubr
          104 915 rmoveto
          46 callsubr
        </CharString>
        <CharString name="Xigreek">
          159 hmoveto
          948 167 -948 hlineto
          80 484 rmoveto
          789 165 -789 hlineto
          -80 460 rmoveto
          948 167 -948 hlineto
          endchar
        </CharString>
        <CharString name="Y">
          -91 callgsubr
          endchar
        </CharString>
        <CharString name="Yacute">
          -91 callgsubr
          -30 114 callsubr
          endchar
        </CharString>
        <CharString name="Ycircumflex">
          -91 callgsubr
          168 1921 -48 callsubr
          179 hlineto
          endchar
        </CharString>
        <CharString name="Ydieresis">
          -91 callgsubr
          -114 1651 -94 callsubr
        </CharString>
        <CharString name="Ydotaccent">
          -91 callgsubr
          88 1640 rmoveto
          46 callsubr
        </CharString>
        <CharString name="Ydotbelow">
          -91 callgsubr
          88 36 callsubr
          endchar
        </CharString>
        <CharString name="Yericyrillic">
          269 749 -64 callsubr
        </CharString>
        <CharString name="Ygrave">
          448 6 callsubr
          -28 -1612 rmoveto
          595 vlineto
          481 848 160 callsubr
          -365 -660 rlineto
          -14 hlineto
          -365 660 160 callsubr
          481 -848 rlineto
          -595 vlineto
          endchar
        </CharString>
        <CharString name="Yhookabove">
          -91 callgsubr
          -85 -61 callgsubr
          endchar
        </CharString>
        <CharString name="Yicyrillic">
          1013 hmoveto
          -91 callsubr
          178 1651 -94 callsubr
        </CharString>
        <CharString name="Ymacron">
          -91 callgsubr
          418 116 callgsubr
          endchar
        </CharString>
        <CharString name="Ytilde">
          -91 callgsubr
          236 44 callsubr
        </CharString>
        <CharString name="Z">
          137 hmoveto
          -62 callsubr
          endchar
        </CharString>
        <CharString name="Zacute">
          137 hmoveto
          -62 callsubr
          381 1483 31 callsubr
          endchar
        </CharString>
        <CharString name="Zcaron">
          1000 -54 callsubr
          -577 -1610 rmoveto
          -62 callsubr
          endchar
        </CharString>
        <CharString name="Zcircumflex">
          137 hmoveto
          -62 callsubr
          577 1792 -48 callsubr
          179 hlineto
          endchar
        </CharString>
        <CharString name="Zdotaccent">
          137 hmoveto
          -62 callsubr
          497 1511 rmoveto
          46 callsubr
        </CharString>
        <CharString name="Zdotbelow">
          137 hmoveto
          -62 callsubr
          496 -580 rmoveto
          86 callsubr
        </CharString>
        <CharString name="Zecyrillic">
          427 661 -66 callgsubr
          endchar
        </CharString>
        <CharString name="Zetagreek">
          137 hmoveto
          -62 callsubr
          endchar
        </CharString>
        <CharString name="Zhecyrillic">
          -36 callsubr
          endchar
        </CharString>
        <CharString name="Zlinebelow">
          137 hmoveto
          -62 callsubr
          826 -524 -80 callsubr
        </CharString>
        <CharString name="a">
          -107 callgsubr
          endchar
        </CharString>
        <CharString name="aacute">
          714 -65 callsubr
          328 -784 -102 callsubr
        </CharString>
        <CharString name="abreve">
          -107 callgsubr
          51 1259 1 callsubr
        </CharString>
        <CharString name="abreveacute">
          -107 callgsubr
          -44 1532 177 callsubr
          231 308 rlineto
          -184 hlineto
          -102 -581 rmoveto
          -131 -73 85 115 1 hvcurveto
          -153 hlineto
          -192 -52 callsubr
          192 vhcurveto
          -151 hlineto
          -115 197 callgsubr
          vhcurveto
          endchar
        </CharString>
        <CharString name="abrevedotbelow">
          -107 callgsubr
          56 218 callsubr
          85 115 1 hvcurveto
          -153 hlineto
          -192 -52 callsubr
          192 vhcurveto
          -151 hlineto
          -115 197 callgsubr
          vhcurveto
          -23 -1840 rmoveto
          86 callsubr
        </CharString>
        <CharString name="abrevegrave">
          272 63 callsubr
          -183 hlineto
          230 -308 rlineto
          156 hlineto
          132 -1150 -102 callsubr
        </CharString>
        <CharString name="abrevehookabove">
          -107 callgsubr
          56 218 callsubr
          84 115 1 hvcurveto
          -153 48 callgsubr
          -151 hlineto
          -115 -73 -84 -132 vhcurveto
          121 callgsubr
          105 40 62 77 94 vvcurveto
          109 -83 74 -120 -53 -54 -12 -16 -36 vhcurveto
          endchar
        </CharString>
        <CharString name="abrevetilde">
          -107 callgsubr
          56 1259 107 callsubr
          -151 hlineto
          -114 197 callgsubr
          vhcurveto
          -142 460 -82 callsubr
          -141 -86 -33 callgsubr
        </CharString>
        <CharString name="acaron">
          728 1296 35 callsubr
          333 -784 -102 callsubr
        </CharString>
        <CharString name="acircumflex">
          -107 callgsubr
          -44 1493 -42 callgsubr
        </CharString>
        <CharString name="acircumflexacute">
          -107 callgsubr
          256 1530 144 callgsubr
          -190 hlineto
          -504 -345 -42 callgsubr
        </CharString>
        <CharString name="acircumflexdotbelow">
          -107 callgsubr
          -44 1493 -73 callsubr
          -123 -2059 rmoveto
          46 callsubr
        </CharString>
        <CharString name="acircumflexgrave">
          -107 callgsubr
          511 1530 rmoveto
          -204 308 rlineto
          -189 hlineto
          230 -308 rlineto
          -392 -37 -42 callgsubr
        </CharString>
        <CharString name="acircumflexhookabove">
          -107 callgsubr
          -44 1493 -73 callsubr
          29 233 rmoveto
          208 callgsubr
          62 41 -6 callsubr
        </CharString>
        <CharString name="acircumflextilde">
          -107 callgsubr
          -87 1740 110 callgsubr
          -160 hhcurveto
          -140 -83 -107 -181 hvcurveto
          207 callgsubr
          25 45 62 hhcurveto
          43 -247 -42 callgsubr
        </CharString>
        <CharString name="acute">
          591 -65 callsubr
          endchar
        </CharString>
        <CharString name="acutecmb">
          -107 86 32 callgsubr
          -206 hlineto
          -239 -339 rlineto
          endchar
        </CharString>
        <CharString name="acutecmb.short">
          363 1612 -4 callsubr
          endchar
        </CharString>
        <CharString name="acutedotaccentcmb">
          70 callgsubr
          endchar
        </CharString>
        <CharString name="acutedotaccentcmb.short">
          610 1612 31 callsubr
          -441 -228 rmoveto
          46 callsubr
        </CharString>
        <CharString name="acyrillic">
          -107 callgsubr
          endchar
        </CharString>
        <CharString name="adblgrave">
          694 1635 38 callgsubr
          330 -784 -102 callsubr
        </CharString>
        <CharString name="adieresis">
          -107 callgsubr
          -142 1170 -23 callsubr
        </CharString>
        <CharString name="adieresismacron">
          830 -19 callgsubr
          563 -1217 -102 callsubr
        </CharString>
        <CharString name="adotaccent">
          -107 callgsubr
          56 1169 rmoveto
          46 callsubr
        </CharString>
        <CharString name="adotbelow">
          -107 callgsubr
          33 -581 rmoveto
          86 callsubr
        </CharString>
        <CharString name="adotmacron">
          -107 callgsubr
          386 1600 25 callgsubr
        </CharString>
        <CharString name="ae">
          -87 callgsubr
          endchar
        </CharString>
        <CharString name="aeacute">
          726 32 callgsubr
          -207 hlineto
          -239 -339 rlineto
          10 -798 rmoveto
          -116 vlineto
          -146 -82 -103 -114 -98 -50 58 112 105 62 65 111 10 vhcurveto
          323 151 rmoveto
          204 11 65 113 106 hhcurveto
          115 58 -108 -209 2 hvcurveto
          14 -345 rmoveto
          -109 -37 -54 -47 -89 hhcurveto
          -124 -71 127 220 hvcurveto
          18 516 65 vlineto
          343 -116 193 -207 -108 -86 -62 -118 -55 vhcurveto
          -5 hlineto
          113 -41 -94 67 -114 hhcurveto
          -165 -123 -120 -176 -17 hvcurveto
          143 hlineto
          89 10 61 59 80 hhcurveto
          107 64 -81 -140 hvcurveto
          -97 vlineto
          -191 -18 rlineto
          -200 -20 -102 -108 -192 vvcurveto
          -185 112 -129 162 133 108 84 143 52 vhcurveto
          4 hlineto
          -142 47 100 -85 119 hhcurveto
          167 107 105 203 40 hvcurveto
          endchar
        </CharString>
        <CharString name="aemacron">
          -87 callgsubr
          612 1237 -80 callsubr
        </CharString>
        <CharString name="agrave">
          -107 callgsubr
          204 1166 -48 callgsubr
          endchar
        </CharString>
        <CharString name="ahookabove">
          -107 callgsubr
          -112 1368 -14 callgsubr
          -12 -16 -35 vhcurveto
          endchar
        </CharString>
        <CharString name="ainvertedbreve">
          984 -12 callsubr
          153 hlineto
          115 122 callsubr
          -115 hvcurveto
          28 -746 -102 callsubr
        </CharString>
        <CharString name="alphagreek">
          298 614 -25 callsubr
        </CharString>
        <CharString name="alphatonosgreek">
          501 1290 49 callsubr
          -284 -1022 -25 callsubr
        </CharString>
        <CharString name="amacron">
          -107 callgsubr
          386 1240 -80 callsubr
        </CharString>
        <CharString name="ampersand">
          1021 hmoveto
          198 hlineto
          -223 271 68 119 35 146 6 177 rlinecurve
          15 -145 -9 vlineto
          -4 -134 -19 -103 -37 -87 -311 391 rcurveline
          198 130 71 103 145 vvcurveto
          183 -131 126 -188 -190 -133 -126 -183 -104 52 -114 110 -134 vhcurveto
          -46 -31 rlineto
          -176 -115 -86 -134 -158 vvcurveto
          -235 177 -165 253 156 136 59 115 114 vhcurveto
          -483 528 rmoveto
          40 26 356 -445 rlineto
          -87 -73 -111 -47 -129 hhcurveto
          -165 -111 104 155 118 61 94 132 82 hvcurveto
          115 657 rmoveto
          98 74 -73 -98 -106 -50 -69 -156 -103 hvcurveto
          -100 120 -38 77 81 vvcurveto
          98 74 73 98 vhcurveto
          endchar
        </CharString>
        <CharString name="anoteleia">
          634 786 rmoveto
          83 64 66 84 85 -64 64 -83 -83 -65 -64 -85 -84 65 -66 83 hvcurveto
          endchar
        </CharString>
        <CharString name="aogonek">
          572 131 rmoveto
          -137 -85 70 113 114 80 64 152 8 hvcurveto
          279 13 rlineto
          -128 vlineto
          -145 -125 -109 -164 vhcurveto
          296 -131 rmoveto
          -111 -64 -56 -79 -94 vvcurveto
          -116 89 -79 131 41 48 9 10 20 vhcurveto
          126 vlineto
          -6 -13 -25 -3 -27 hhcurveto
          -69 -42 36 60 74 66 77 103 47 hvcurveto
          7 2 rlineto
          743 vlineto
          225 -146 131 -255 -222 -168 -120 -173 -20 vhcurveto
          167 hlineto
          93 28 88 53 125 hhcurveto
          151 83 -75 -137 hvcurveto
          -97 vlineto
          -298 -15 rlineto
          -247 -13 -138 185 callgsubr
          vvcurveto
          -196 138 -130 207 158 118 65 116 52 vhcurveto
          17 hlineto
          endchar
        </CharString>
        <CharString name="approxequal">
          457 758 rmoveto
          43 38 -28 -61 57 hvcurveto
          -73 72 64 -35 76 199 callgsubr
          -98 -6 -37 -59 -80 hhcurveto
          -43 -39 28 59 -55 hvcurveto
          73 -72 -64 35 -76 hhcurveto
          -166 -97 -120 -188 1 hvcurveto
          138 hlineto
          99 7 37 59 78 hhcurveto
          -442 vmoveto
          43 38 -27 -61 57 hvcurveto
          -72 72 63 -35 77 199 callgsubr
          -99 -6 -37 -60 -80 hhcurveto
          -43 -39 29 59 -55 hvcurveto
          73 -72 -64 36 -76 hhcurveto
          -166 -97 -121 -187 1 hvcurveto
          138 hlineto
          98 7 36 58 79 hhcurveto
          endchar
        </CharString>
        <CharString name="aring">
          -107 callgsubr
          56 1230 rmoveto
          -67 -51 53 69 69 51 53 67 201 callsubr
          125 101 104 127 127 -101 104 -125 -124 -102 -104 -127 -127 102 -104 124 hvcurveto
          endchar
        </CharString>
        <CharString name="aringacute">
          704 1723 rmoveto
          192 241 rlineto
          -178 hlineto
          -164 142 callgsubr
          -87 -86 -112 -111 87 132 callgsubr
          233 -811 -102 callsubr
        </CharString>
        <CharString name="aringbelow">
          -107 callgsubr
          33 -600 129 callsubr
          101 104 127 128 -101 103 -124 -125 -101 -103 -128 -127 101 -104 125 hvcurveto
          endchar
        </CharString>
        <CharString name="arrowleftright">
          814 242 rmoveto
          467 471 -467 472 -102 -101 146 -138 194 -161 rlineto
          -6 vlineto
          -219 6 rlineto
          -400 hlineto
          -219 -6 rlineto
          6 vlineto
          194 161 146 138 -102 101 -467 -472 467 -471 102 101 -146 138 -194 161 rlineto
          6 vlineto
          219 -6 rlineto
          400 hlineto
          219 6 rlineto
          -6 vlineto
          -194 -161 -146 -138 rlineto
          endchar
        </CharString>
        <CharString name="asciicircum">
          624 1275 rmoveto
          17 hlineto
          229 -570 rlineto
          167 hlineto
          -310 738 rlineto
          -188 hlineto
          -311 -738 rlineto
          168 hlineto
          endchar
        </CharString>
        <CharString name="asciitilde">
          299 556 rmoveto
          119 7 46 60 83 hhcurveto
          45 40 -25 -74 70 hvcurveto
          -89 87 72 -35 98 hhcurveto
          168 111 129 197 hvcurveto
          22 -157 vlineto
          -116 -7 -45 -63 -78 hhcurveto
          -50 -42 26 73 -69 hvcurveto
          90 -88 -72 35 -97 hhcurveto
          -169 -113 -130 -196 hvcurveto
          -5 1 -13 -5 vvcurveto
          endchar
        </CharString>
        <CharString name="asterisk">
          1172 867 rmoveto
          -71 129 -409 -252 12 478 rlineto
          -142 hlineto
          12 -478 -409 252 -71 -129 417 -227 -417 -227 71 -129 409 252 -12 -479 rlineto
          142 hlineto
          -12 478 409 -251 71 129 -417 227 rlineto
          endchar
        </CharString>
        <CharString name="at">
          663 -198 rmoveto
          98 99 16 23 48 hvcurveto
          118 vlineto
          -21 -42 -95 -15 -90 hhcurveto
          -304 -139 200 443 hvcurveto
          155 vlineto
          436 129 197 280 262 136 -174 -341 vhcurveto
          -281 vlineto
          -100 -34 -37 -92 vhcurveto
          -164 415 hlineto
          75 -38 47 -58 -59 -38 -47 -75 vhcurveto
          -409 vlineto
          -74 47 -47 75 vhcurveto
          255 hlineto
          144 84 95 161 hvcurveto
          299 vlineto
          395 -187 219 -332 -349 -185 -258 -487 vhcurveto
          -187 vlineto
          -487 189 -254 360 vhcurveto
          endchar
        </CharString>
        <CharString name="atilde">
          -107 callgsubr
          -86 1293 -3 callgsubr
          -61 vhcurveto
          -85 -43 155 -156 hhcurveto
          -141 -86 -33 callgsubr
        </CharString>
        <CharString name="austral">
          1226 hmoveto
          -141 405 rlineto
          106 119 -145 hlineto
          -62 178 rlineto
          207 120 -248 hlineto
          -213 621 178 callsubr
          -213 -621 rlineto
          -248 -120 208 hlineto
          -62 -178 rlineto
          -146 -119 107 hlineto
          -141 -405 rlineto
          182 hlineto
          134 405 rlineto
          554 hlineto
          134 -405 rlineto
          -651 524 rmoveto
          62 187 rlineto
          356 hlineto
          62 -187 rlineto
          -234 705 rmoveto
          140 -416 rlineto
          -292 hlineto
          139 416 rlineto
          endchar
        </CharString>
        <CharString name="b">
          -78 callgsubr
          endchar
        </CharString>
        <CharString name="backslash">
          1068 -137 rmoveto
          -703 1717 211 callsubr
          704 -1717 rlineto
          endchar
        </CharString>
        <CharString name="baht">
          620 674 rmoveto
          211 -5 113 -91 -165 vvcurveto
          -171 -113 -91 -211 -1 vhcurveto
          -310 hmoveto
          524 202 -524 vlineto
          -202 1143 rmoveto
          202 -473 -202 hlineto
          310 473 rmoveto
          163 -7 98 -86 -143 vvcurveto
          -140 -94 -82 -167 -13 vhcurveto
          178 -51 rmoveto
          148 25 109 130 160 vvcurveto
          220 -160 137 -261 vhcurveto
          -14 153 -108 -153 -372 -65 callgsubr
          372 -147 108 147 27 hlineto
          301 177 151 252 194 -133 140 -194 19 hvcurveto
          endchar
        </CharString>
        <CharString name="bar">
          711 -483 rmoveto
          2063 -156 -2063 vlineto
          endchar
        </CharString>
        <CharString name="bdotaccent">
          -78 callgsubr
          94 1162 rmoveto
          46 callsubr
        </CharString>
        <CharString name="bdotbelow">
          -78 callgsubr
          -18 -588 rmoveto
          86 callsubr
        </CharString>
        <CharString name="becyrillic">
          646 132 rmoveto
          -207 -122 146 251 239 124 145 205 207 122 -142 -242 -251 -122 -146 -207 hvcurveto
          -358 699 rmoveto
          33 331 118 134 273 7 rrcurveto
          29 90 5 2 26 hvcurveto
          88 4 71 16 69 29 rrcurveto
          151 vlineto
          -47 -19 -103 -20 -87 -7 rrcurveto
          -4 -55 -69 -4 -21 hhcurveto
          -397 -14 -163 -239 -562 vvcurveto
          -21 vlineto
          -421 173 -220 331 313 190 210 345 326 -183 204 -289 -173 -134 -87 -146 -67 vhcurveto
          endchar
        </CharString>
        <CharString name="betagreek">
          185 -366 rmoveto
          166 534 19 hlineto
          -126 54 115 -60 173 hhcurveto
          253 162 184 265 210 -109 136 -208 43 hvcurveto
          14 vlineto
          133 46 82 119 148 vvcurveto
          235 -150 149 -253 -278 -159 -173 -303 vhcurveto
          496 -919 rmoveto
          -203 -130 107 233 hvcurveto
          562 vlineto
          228 93 114 181 153 86 -97 -148 -155 -96 -90 -164 vhcurveto
          -98 -152 104 hlineto
          223 129 -110 -194 -176 -109 -122 -169 hvcurveto
          endchar
        </CharString>
        <CharString name="bitcoin">
          339 179 rmoveto
          488 273 vlineto
          233 115 -83 -156 -154 -107 -95 -213 hvcurveto
          -301 1082 rmoveto
          278 hlineto
          178 97 -80 -138 -147 -115 -83 -204 hvcurveto
          -234 hlineto
          467 -48 rmoveto
          149 24 112 134 152 vvcurveto
          194 -123 121 -223 19 vhcurveto
          201 -109 -198 -153 198 -109 -198 -182 -1385 182 -196 109 196 153 -196 109 197 vlineto
          273 14 147 149 225 vvcurveto
          185 -134 129 -201 20 vhcurveto
          endchar
        </CharString>
        <CharString name="blinebelow">
          -78 callgsubr
          312 -532 -80 callsubr
        </CharString>
        <CharString name="braceleft">
          1023 -137 rmoveto
          137 -109 vlineto
          -150 -29 35 174 hvcurveto
          267 vlineto
          140 -105 93 -203 4 vhcurveto
          16 vlineto
          203 5 105 93 140 vvcurveto
          267 vlineto
          174 29 35 150 vhcurveto
          109 137 -136 hlineto
          -243 -77 -77 -247 hvcurveto
          -224 vlineto
          -155 -90 -89 -234 24 vhcurveto
          -181 vlineto
          234 24 90 -90 -154 vvcurveto
          -224 vlineto
          -247 77 -77 243 vhcurveto
          endchar
        </CharString>
        <CharString name="braceright">
          379 -137 rmoveto
          243 77 77 247 hvcurveto
          224 vlineto
          154 90 90 234 -24 vhcurveto
          181 vlineto
          -234 -24 -90 89 155 vvcurveto
          224 vlineto
          247 -77 77 -243 vhcurveto
          -136 -137 109 hlineto
          150 29 -35 -174 hvcurveto
          -267 vlineto
          -140 105 -93 203 -5 vhcurveto
          -16 vlineto
          -203 -4 -105 -93 -140 vvcurveto
          -267 vlineto
          -174 -29 -35 -150 vhcurveto
          -109 -137 hlineto
          endchar
        </CharString>
        <CharString name="bracketleft">
          373 1580 rmoveto
          -1717 529 137 -364 1443 362 137 vlineto
          endchar
        </CharString>
        <CharString name="bracketright">
          375 1580 rmoveto
          -137 361 -65 callgsubr
          -363 -137 529 1717 vlineto
          endchar
        </CharString>
        <CharString name="breve">
          54 callgsubr
        </CharString>
        <CharString name="breveacutecmb">
          533 1662 177 callsubr
          231 308 rlineto
          -184 hlineto
          -102 -581 1 callsubr
        </CharString>
        <CharString name="breveacutecmb.short">
          521 1862 rmoveto
          157 hlineto
          189 221 230 callsubr
          -397 -226 rmoveto
          56 callgsubr
          -138 hlineto
          81 callsubr
          endchar
        </CharString>
        <CharString name="brevebelowcmb">
          633 -346 rmoveto
          5 callgsubr
        </CharString>
        <CharString name="brevecmb">
          54 callgsubr
        </CharString>
        <CharString name="brevecmb.short">
          288 1918 -21 callsubr
        </CharString>
        <CharString name="brevecyrillic">
          302 1570 7 callsubr
        </CharString>
        <CharString name="brevecyrillic.short">
          302 1924 -68 callgsubr
          endchar
        </CharString>
        <CharString name="brevegravecmb">
          277 63 callsubr
          -184 hlineto
          231 -308 rlineto
          155 hlineto
          endchar
        </CharString>
        <CharString name="brevegravecmb.short">
          148 callsubr
          -300 -5 rmoveto
          56 callgsubr
          -138 hlineto
          81 callsubr
          endchar
        </CharString>
        <CharString name="brevehookabovecmb">
          633 1389 rmoveto
          -131 -73 84 115 hvcurveto
          -152 48 callgsubr
          -152 hlineto
          -115 1 -73 -84 -132 hhcurveto
          121 callgsubr
          104 40 63 77 94 vvcurveto
          109 -83 74 -120 -53 166 callsubr
          endchar
        </CharString>
        <CharString name="brevehookabovecmb.short">
          472 1997 rmoveto
          167 callsubr
          80 -70 rlineto
          161 callgsubr
          -181 -248 rmoveto
          170 callsubr
          -133 hlineto
          -100 -1 -78 -59 -130 hhcurveto
          -130 -78 59 100 -1 hvcurveto
          endchar
        </CharString>
        <CharString name="brevetildecmb">
          633 1389 rmoveto
          8 callgsubr
          -142 460 -98 callgsubr
          endchar
        </CharString>
        <CharString name="brevetildecmb.short">
          292 1814 103 callsubr
          349 51 rmoveto
          115 84 87 127 hvcurveto
          -120 hlineto
          85 callgsubr
          endchar
        </CharString>
        <CharString name="brokenbar">
          711 782 rmoveto
          798 -156 -798 vlineto
          156 -1265 rmoveto
          798 -156 -798 vlineto
          endchar
        </CharString>
        <CharString name="bullet">
          633 216 rmoveto
          231 190 191 233 233 -190 191 -231 -231 -190 -191 -233 -233 190 -191 231 hvcurveto
          endchar
        </CharString>
        <CharString name="c">
          1085 747 -1 callsubr
        </CharString>
        <CharString name="cacute">
          723 -65 callsubr
          543 -1 callgsubr
        </CharString>
        <CharString name="caron">
          733 1296 -60 callgsubr
          endchar
        </CharString>
        <CharString name="caroncmb">
          733 1296 -60 callgsubr
          endchar
        </CharString>
        <CharString name="caroncmb.short">
          999 -54 callsubr
          endchar
        </CharString>
        <CharString name="carondotaccentcmb">
          633 1698 rmoveto
          -59 callgsubr
          59 -68 -68 -58 -59 -60 callsubr
          100 -410 -60 callgsubr
          endchar
        </CharString>
        <CharString name="carondotaccentcmb.short">
          633 1868 223 callsubr
          -51 -51 -65 -66 51 77 callsubr
        </CharString>
        <CharString name="ccaron">
          738 1296 rmoveto
          273 342 rlineto
          -194 125 callsubr
          -15 hlineto
          -172 227 rlineto
          -194 hlineto
          273 -342 rlineto
          548 -1 callgsubr
        </CharString>
        <CharString name="ccedilla">
          -34 callgsubr
        </CharString>
        <CharString name="ccedillaacute">
          988 1635 105 callsubr
          -367 -704 -26 callsubr
          -283 143 -175 248 -30 vhcurveto
          -55 -134 rlineto
          -86 58 vlineto
          102 42 2 callgsubr
          -71 58 -128 1 hvcurveto
          46 114 210 20 142 130 25 204 rlinecurve
          -168 hlineto
          -124 -21 -106 -79 -140 hhcurveto
          -189 -105 128 233 hvcurveto
          endchar
        </CharString>
        <CharString name="ccircumflex">
          1085 747 -88 callsubr
          -380 876 97 callgsubr
        </CharString>
        <CharString name="cdotaccent">
          1085 747 -88 callsubr
          -279 560 41 callgsubr
        </CharString>
        <CharString name="cedi">
          603 140 rmoveto
          -239 32 -133 219 330 vvcurveto
          331 134 220 238 31 vhcurveto
          443 -867 rmoveto
          -33 -164 -118 -113 -177 -20 rrcurveto
          1164 vlineto
          172 -20 122 -126 33 -175 rrcurveto
          176 hlineto
          -31 268 -196 199 -276 23 rrcurveto
          124 -115 -124 vlineto
          -352 -28 -200 -282 -441 vvcurveto
          -440 200 -281 352 -29 vhcurveto
          -149 115 149 vlineto
          282 20 189 182 32 263 rrcurveto
          endchar
        </CharString>
        <CharString name="cedilla">
          475 -236 rmoveto
          58 hlineto
          103 41 2 callgsubr
          -70 58 -129 1 hvcurveto
          53 132 rlineto
          -132 hlineto
          -61 -150 rlineto
          endchar
        </CharString>
        <CharString name="cedillacmb">
          518 -236 rmoveto
          57 hlineto
          116 callsubr
          -73 94 callsubr
          -131 hlineto
          -61 -150 rlineto
          endchar
        </CharString>
        <CharString name="cent">
          898 479 rmoveto
          -84 -15 -97 -71 -133 hhcurveto
          -177 -103 117 197 hvcurveto
          171 vlineto
          197 107 121 173 128 94 -76 -97 16 vhcurveto
          168 hlineto
          -11 167 -127 126 -186 29 rrcurveto
          169 -170 -169 vlineto
          -218 -34 -147 -159 -266 vvcurveto
          -185 vlineto
          -272 141 -159 224 -31 vhcurveto
          -172 170 173 vlineto
          183 29 145 120 5 159 rrcurveto
          endchar
        </CharString>
        <CharString name="checyrillic">
          1046 1085 rmoveto
          -170 -420 hlineto
          -47 callgsubr
          170 hlineto
          endchar
        </CharString>
        <CharString name="chigreek">
          158 -366 rmoveto
          178 hlineto
          292 554 rlineto
          13 hlineto
          201 -391 rlineto
          -124 63 52 -49 121 hhcurveto
          35 35 4 9 25 hvcurveto
          142 vlineto
          -4 -19 -14 -3 -19 hhcurveto
          -62 -42 35 88 -45 hvcurveto
          -235 458 404 732 rlineto
          -178 hlineto
          -297 -561 rlineto
          -13 hlineto
          -198 388 rlineto
          138 -69 -50 47 -123 hhcurveto
          -33 -32 -4 -9 -27 hvcurveto
          -141 vlineto
          3 17 22 3 15 hhcurveto
          65 32 -30 -88 45 hvcurveto
          241 -469 rlineto
          endchar
        </CharString>
        <CharString name="circumflex">
          533 1623 -88 callgsubr
          endchar
        </CharString>
        <CharString name="circumflexacutecmb">
          833 1660 144 callgsubr
          -190 hlineto
          -504 -345 -88 callgsubr
          endchar
        </CharString>
        <CharString name="circumflexacutecmb.short">
          835 1844 rmoveto
          170 hlineto
          235 239 rlineto
          -192 hlineto
          -325 -270 -74 callsubr
          endchar
        </CharString>
        <CharString name="circumflexbelowcmb">
          533 -166 -38 callsubr
          endchar
        </CharString>
        <CharString name="circumflexcmb">
          533 1623 -88 callgsubr
          endchar
        </CharString>
        <CharString name="circumflexcmb.short">
          713 1921 -48 callsubr
          179 hlineto
          endchar
        </CharString>
        <CharString name="circumflexgravecmb">
          1088 1660 rmoveto
          -204 308 rlineto
          -190 hlineto
          231 -308 rlineto
          -392 -37 -88 callgsubr
          endchar
        </CharString>
        <CharString name="circumflexgravecmb.short">
          1070 1844 209 callsubr
          -191 hlineto
          234 -239 rlineto
          -177 -31 -74 callsubr
          endchar
        </CharString>
        <CharString name="circumflexhookabovecmb">
          533 1623 -88 callgsubr
          29 233 rmoveto
          208 callgsubr
          61 42 -6 callsubr
        </CharString>
        <CharString name="circumflexhookabovecmb.short">
          756 1991 rmoveto
          89 callgsubr
          -51 -21 hvcurveto
          80 -70 rlineto
          55 callsubr
          -33 -279 -74 callsubr
          endchar
        </CharString>
        <CharString name="circumflextildecmb">
          490 1870 -2 callgsubr
        </CharString>
        <CharString name="circumflextildecmb.short">
          723 1813 -46 callgsubr
        </CharString>
        <CharString name="colon">
          142 callsubr
          768 vmoveto
          99 82 84 101 101 -82 84 -99 -99 -82 -84 -101 -101 82 -84 99 hvcurveto
          endchar
        </CharString>
        <CharString name="coloncurrency">
          815 1300 rmoveto
          2 16 18 0 17 hhcurveto
          61 57 -3 -6 47 hvcurveto
          -386 -1122 -71 21 -61 31 -53 42 rlinecurve
          -85 90 rmoveto
          -72 93 -38 122 151 vvcurveto
          303 168 199 261 58 vhcurveto
          -49 -1459 rmoveto
          58 168 rlineto
          -10 53 57 -5 59 hhcurveto
          103 99 11 18 83 hvcurveto
          167 vlineto
          -18 -65 -101 -13 -106 hhcurveto
          -46 -44 4 7 -41 hvcurveto
          492 1445 rlineto
          -117 hlineto
          -49 -145 rlineto
          8 -54 -58 7 -72 hhcurveto
          -29 hlineto
          45 130 rlineto
          -116 hlineto
          -45 -135 rlineto
          -406 -41 -258 -270 -429 vvcurveto
          -247 81 -190 145 -125 vhcurveto
          -118 -337 rlineto
          116 hlineto
          95 272 55 -36 64 -28 70 -20 rlinecurve
          -66 -188 rlineto
          endchar
        </CharString>
        <CharString name="comma">
          581 -335 rmoveto
          181 714 rlineto
          -230 hlineto
          -130 -714 rlineto
          endchar
        </CharString>
        <CharString name="commaaccent">
          647 -494 20 callsubr
        </CharString>
        <CharString name="commabelowcmb">
          646 -519 rmoveto
          129 16 callgsubr
          endchar
        </CharString>
        <CharString name="copyright">
          879 813 rmoveto
          120 -18 -92 79 -124 hhcurveto
          -162 -100 -108 -182 -182 100 -108 162 124 94 79 114 16 hvcurveto
          -119 hlineto
          -51 -12 -43 -31 -60 hhcurveto
          -90 -51 68 111 111 51 68 90 60 39 -33 -55 16 hvcurveto
          -127 -641 rmoveto
          303 239 239 310 310 -239 239 -303 -303 -239 -239 -310 -310 239 -239 303 hvcurveto
          98 vmoveto
          -245 -191 199 252 252 191 199 245 245 191 -199 -252 -252 -191 -199 -245 hvcurveto
          endchar
        </CharString>
        <CharString name="cruzeiro">
          1153 171 rmoveto
          -16 -58 -86 -12 -91 hhcurveto
          -15 -1 -17 -2 -18 1 rrcurveto
          326 vlineto
          163 90 110 141 35 44 -6 -7 16 vhcurveto
          159 vlineto
          5 -22 -26 4 -29 hhcurveto
          -125 -90 -80 -117 -27 hvcurveto
          -13 180 -150 -722 hlineto
          -280 50 -171 196 319 vvcurveto
          366 242 215 360 112 103 -12 -14 61 vhcurveto
          161 vlineto
          18 -71 -97 12 -110 hhcurveto
          -468 -309 -276 -470 -480 300 -266 484 103 99 11 18 83 hvcurveto
          endchar
        </CharString>
        <CharString name="currency">
          1132 1047 rmoveto
          -105 111 -167 -173 rlineto
          44 -61 -75 23 -80 hhcurveto
          -78 -75 -23 -45 -62 hvcurveto
          -167 174 -107 -111 169 -172 rlineto
          -44 -62 -22 -75 -82 vvcurveto
          -82 22 -75 44 -64 vhcurveto
          -169 -172 107 -110 166 174 rlineto
          -44 63 75 -23 78 hhcurveto
          80 74 23 44 61 hvcurveto
          168 -174 105 110 -166 171 rlineto
          44 64 22 75 83 vvcurveto
          82 -22 75 -43 64 vhcurveto
          -322 -480 rmoveto
          -148 -107 110 149 150 107 110 148 147 107 -110 -150 -149 -107 -110 -147 hvcurveto
          endchar
        </CharString>
        <CharString name="d">
          321 622 -96 callsubr
        </CharString>
        <CharString name="dagger">
          704 771 rmoveto
          102 callsubr
          -1 -942 rlineto
          144 hlineto
          endchar
        </CharString>
        <CharString name="daggerdbl">
          1113 262 rmoveto
          151 vlineto
          -409 -1 rlineto
          359 vlineto
          102 callsubr
          rlineto
          -359 vlineto
          -409 1 rlineto
          -151 vlineto
          409 1 -1 -434 rlineto
          144 hlineto
          -1 434 rlineto
          endchar
        </CharString>
        <CharString name="darkshade">
          1054 1354 rmoveto
          -106 -105 106 vlineto
          -105 194 callsubr
          -105 194 callsubr
          -106 hmoveto
          -106 -104 106 vlineto
          -106 hmoveto
          -106 -105 106 vlineto
          843 -317 rmoveto
          -105 106 105 hlineto
          -632 209 callgsubr
          843 209 callgsubr
          -633 209 callgsubr
          211 -106 rmoveto
          -105 106 105 hlineto
          -105 -212 rmoveto
          -104 -106 104 vlineto
          527 hmoveto
          -104 -105 104 vlineto
          -105 hmoveto
          -104 -106 104 vlineto
          -317 hmoveto
          -104 -104 104 vlineto
          -106 hmoveto
          -104 -105 104 vlineto
          843 -210 rmoveto
          -106 -105 106 vlineto
          -317 194 callsubr
          739 194 callsubr
          -316 hmoveto
          -106 -105 106 vlineto
          -316 209 callgsubr
          737 -211 rmoveto
          -106 -105 106 vlineto
          -632 -106 rmoveto
          106 104 -106 vlineto
          -210 106 rmoveto
          -106 -105 106 vlineto
          738 194 callsubr
          -105 194 callsubr
          317 -316 rmoveto
          105 105 -105 vlineto
          -738 hmoveto
          105 106 -105 vlineto
          316 hmoveto
          105 105 -105 vlineto
          316 hmoveto
          105 106 -105 vlineto
          -739 hmoveto
          105 106 -105 vlineto
          317 -106 rmoveto
          -105 -106 207 callsubr
          -105 105 vlineto
          315 hmoveto
          -105 -104 105 vlineto
          737 hmoveto
          -105 -105 105 vlineto
          -316 hmoveto
          -105 -106 105 vlineto
          106 -316 rmoveto
          105 105 -105 vlineto
          316 hmoveto
          105 106 -105 vlineto
          -949 hmoveto
          105 106 -105 vlineto
          104 hmoveto
          105 106 -105 vlineto
          317 hmoveto
          105 105 -105 vlineto
          -738 -211 rmoveto
          106 106 104 -106 106 106 106 -106 105 106 106 -106 105 106 105 -106 106 106 106 316 -106 105 106 316 -106 106 106 317 -106 104 106 317 -106 106 106 210 -106 -106 -106 106 -105 -106 -105 106 -106 -106 -105 hlineto
          106 -106 -106 -106 106 -104 -106 -106 106 -105 -106 -106 -315 106 -106 -106 -316 106 -106 -106 -316 106 -105 -106 -317 106 -105 -106 -211 106 106 105 vlineto
          endchar
        </CharString>
        <CharString name="dbldnhorzbxd">
          -154 640 rmoveto
          89 callsubr
          1574 -478 82 callgsubr
          -308 -1161 rmoveto
          79 callgsubr
        </CharString>
        <CharString name="dbldnleftbxd">
          864 -840 rmoveto
          1639 -1018 -159 864 -1480 vlineto
          -154 hmoveto
          79 callgsubr
        </CharString>
        <CharString name="dbldnrightbxd">
          1420 640 rmoveto
          159 -1018 -1639 154 1480 vlineto
          864 -319 82 callgsubr
          endchar
        </CharString>
        <CharString name="dblgrave">
          84 callgsubr
        </CharString>
        <CharString name="dblgravecmb">
          84 callgsubr
        </CharString>
        <CharString name="dblgravecmb.short">
          789 26 callsubr
          endchar
        </CharString>
        <CharString name="dblhorzbxd">
          -154 640 rmoveto
          89 callsubr
          -478 vmoveto
          89 callsubr
          endchar
        </CharString>
        <CharString name="dbluphorzbxd">
          710 640 rmoveto
          710 159 -556 1161 68 callsubr
          -319 vmoveto
          89 callsubr
          endchar
        </CharString>
        <CharString name="dblupleftbxd">
          556 640 rmoveto
          57 callsubr
          -1161 -556 -159 vlineto
          1018 -319 rmoveto
          1639 -154 -1480 -864 -159 vlineto
          endchar
        </CharString>
        <CharString name="dbluprightbxd">
          710 640 189 callsubr
          -308 -1639 rmoveto
          1018 159 -864 1480 -154 hlineto
          endchar
        </CharString>
        <CharString name="dblvertbxd">
          191 callsubr
          -308 -2800 90 callgsubr
          endchar
        </CharString>
        <CharString name="dblverthorzbxd">
          710 640 rmoveto
          710 159 -556 1161 68 callsubr
          1574 -319 82 callgsubr
          -308 -1161 rmoveto
          79 callgsubr
        </CharString>
        <CharString name="dblvertleftbxd">
          710 -840 rmoveto
          154 2800 68 callsubr
          710 -1480 rmoveto
          79 callgsubr
        </CharString>
        <CharString name="dblvertrightbxd">
          402 84 callsubr
          308 -1320 189 callsubr
          710 -1639 82 callgsubr
          endchar
        </CharString>
        <CharString name="dcaron">
          252 619 rmoveto
          215 92 116 170 168 93 -116 -215 vhcurveto
          -151 vlineto
          -215 -93 -116 -168 -170 -92 116 215 vhcurveto
          533 -302 rmoveto
          -166 153 1511 -159 -594 -18 vlineto
          126 -50 -95 60 -146 hhcurveto
          -240 -139 -167 -292 hvcurveto
          -202 vlineto
          -293 139 -167 240 143 92 58 126 61 vhcurveto
          312 1345 rmoveto
          -458 115 vlineto
          37 458 rlineto
          endchar
        </CharString>
        <CharString name="dcircumflexbelow">
          533 -166 -38 callsubr
          -412 788 -96 callsubr
        </CharString>
        <CharString name="dcommaaccent">
          646 -519 rmoveto
          129 16 callgsubr
          -167 1141 -96 callsubr
        </CharString>
        <CharString name="dcroat">
          906 466 74 callsubr
          327 762 rmoveto
          -158 127 -173 -127 -229 -112 229 -355 -19 hlineto
          119 -47 -116 67 -156 hhcurveto
          -251 -165 -181 -278 hvcurveto
          -202 vlineto
          -279 165 -181 251 155 113 64 120 57 vhcurveto
          18 -166 168 1272 158 hlineto
          endchar
        </CharString>
        <CharString name="ddotaccent">
          520 71 callsubr
          -199 -677 -96 callsubr
        </CharString>
        <CharString name="ddotbelow">
          69 callgsubr
          -312 1073 -96 callsubr
        </CharString>
        <CharString name="decyrillic">
          11 callgsubr
        </CharString>
        <CharString name="degree">
          634 838 rmoveto
          182 136 136 182 182 -136 136 -182 -182 -136 -136 -182 -182 136 -136 182 hvcurveto
          122 vmoveto
          -112 -82 83 113 113 82 83 112 112 82 -83 -113 -113 -82 -83 -112 hvcurveto
          endchar
        </CharString>
        <CharString name="deltagreek">
          1138 516 rmoveto
          276 -145 136 -305 147 vhcurveto
          -160 75 -41 43 66 vvcurveto
          79 80 46 127 120 117 -34 -53 101 vhcurveto
          159 vlineto
          47 -81 -124 28 -140 hhcurveto
          -224 -145 -109 -154 -111 60 -77 159 -78 hvcurveto
          -17 vlineto
          -254 -34 -151 -186 -253 vvcurveto
          -33 vlineto
          -319 186 -180 320 307 193 193 316 vhcurveto
          -498 385 rmoveto
          195 133 -143 -216 hvcurveto
          -23 vlineto
          -230 -118 -132 -208 -215 -124 120 232 vhcurveto
          34 vlineto
          229 136 129 201 vhcurveto
          endchar
        </CharString>
        <CharString name="dieresis">
          431 1320 -59 callsubr
        </CharString>
        <CharString name="dieresisacutecmb">
          528 1662 120 callgsubr
          -659 -57 callgsubr
          endchar
        </CharString>
        <CharString name="dieresisacutecmb.short">
          508 1859 rmoveto
          170 hlineto
          233 224 178 callsubr
          -277 -517 5 callsubr
        </CharString>
        <CharString name="dieresisbelowcmb">
          431 -444 -59 callsubr
        </CharString>
        <CharString name="dieresiscaroncmb">
          724 4 callsubr
        </CharString>
        <CharString name="dieresiscaroncmb.short">
          720 1854 rmoveto
          282 246 rlineto
          -191 hlineto
          -171 -153 rlineto
          -14 hlineto
          -171 153 rlineto
          -191 hlineto
          282 -246 rlineto
          -107 -288 5 callsubr
        </CharString>
        <CharString name="dieresiscmb">
          431 1300 -23 callsubr
        </CharString>
        <CharString name="dieresiscmb.short">
          431 1651 -94 callsubr
        </CharString>
        <CharString name="dieresisgravecmb">
          431 1311 -57 callgsubr
          -307 659 rmoveto
          -192 hlineto
          236 -308 197 callsubr
          endchar
        </CharString>
        <CharString name="dieresisgravecmb.short">
          440 1566 153 callsubr
          389 hmoveto
          155 callsubr
          -60 51 callgsubr
          60 hvcurveto
          -277 517 rmoveto
          -195 hlineto
          233 -224 rlineto
          170 hlineto
          endchar
        </CharString>
        <CharString name="dieresismacroncmb">
          35 callgsubr
          endchar
        </CharString>
        <CharString name="dieresismacroncmb.short">
          829 1787 rmoveto
          -60 51 callgsubr
          60 42 callsubr
          -48 -49 -62 -61 48 -49 59 155 callsubr
          hvcurveto
          endchar
        </CharString>
        <CharString name="dieresistonosgreek">
          521 1290 108 callgsubr
          62 53 55 64 63 -53 55 -62 29 callsubr
        </CharString>
        <CharString name="divide">
          1130 564 rmoveto
          152 -994 -152 vlineto
          498 308 rmoveto
          71 52 53 217 callgsubr
          -53 70 hvcurveto
          -717 vmoveto
          71 52 52 217 callgsubr
          -52 70 hvcurveto
          endchar
        </CharString>
        <CharString name="djecyrillic">
          352 893 rmoveto
          379 252 112 -252 127 -164 -127 -163 -112 163 -1272 170 49 callgsubr
          -719 vlineto
          -119 -48 -47 -123 vhcurveto
          -29 1 rlineto
          -144 vlineto
          -1 4 33 0 5 hhcurveto
          223 105 99 209 hvcurveto
          764 vlineto
          259 -128 142 -236 -166 -125 -76 -135 -57 vhcurveto
          endchar
        </CharString>
        <CharString name="dlinebelow">
          963 -395 -90 callgsubr
          18 1017 -96 callsubr
        </CharString>
        <CharString name="dndblhorzsngbxd">
          119 callsubr
          -1574 104 callsubr
        </CharString>
        <CharString name="dndblleftsngbxd">
          145 callsubr
          154 1480 -1018 104 callsubr
        </CharString>
        <CharString name="dndblrightsngbxd">
          119 callsubr
          -1018 -1480 154 1320 154 hlineto
          endchar
        </CharString>
        <CharString name="dneighthblock">
          127 callsubr
          256 140 callsubr
        </CharString>
        <CharString name="dnfiveeighthsblock">
          127 callsubr
          1280 140 callsubr
        </CharString>
        <CharString name="dnhalfblock">
          127 callsubr
          1024 140 callsubr
        </CharString>
        <CharString name="dnheavyhorzlightbxd">
          10 callgsubr
          -1574 228 callsubr
          -1320 95 callgsubr
        </CharString>
        <CharString name="dnheavyleftlightbxd">
          165 callsubr
          1480 -925 168 callsubr
        </CharString>
        <CharString name="dnheavyleftuplightbxd">
          165 callsubr
          1480 -61 112 callsubr
          -710 168 callsubr
        </CharString>
        <CharString name="dnheavyrightlightbxd">
          10 callgsubr
          -925 -1480 95 callgsubr
        </CharString>
        <CharString name="dnheavyrightuplightbxd">
          -8 callsubr
          -1320 -61 -1480 95 callgsubr
        </CharString>
        <CharString name="dnheavyuphorzlightbxd">
          -8 callsubr
          -1320 -710 228 callsubr
          -1320 95 callgsubr
        </CharString>
        <CharString name="dnleftquadrant">
          -464 vmoveto
          123 callsubr
        </CharString>
        <CharString name="dnlighthorzheavybxd">
          -35 callsubr
          -1574 78 callsubr
        </CharString>
        <CharString name="dnlightleftheavybxd">
          145 callsubr
          1543 -864 168 callgsubr
        </CharString>
        <CharString name="dnlightleftupheavybxd">
          771 417 rmoveto
          1543 139 callgsubr
        </CharString>
        <CharString name="dnlightrightheavybxd">
          -35 callsubr
          -864 -1543 154 66 callsubr
        </CharString>
        <CharString name="dnlightrightupheavybxd">
          -35 callsubr
          -649 1257 -276 -1543 61 -1257 154 66 callsubr
        </CharString>
        <CharString name="dnlightuphorzheavybxd">
          -35 callsubr
          -649 1257 139 callgsubr
        </CharString>
        <CharString name="dnquarterblock">
          127 callsubr
          512 140 callsubr
        </CharString>
        <CharString name="dnrightquadrant">
          633 -464 rmoveto
          123 callsubr
        </CharString>
        <CharString name="dnseveneighthsblock">
          127 callsubr
          1792 140 callsubr
        </CharString>
        <CharString name="dnsnghorzdblbxd">
          -154 640 rmoveto
          89 callsubr
          1574 -478 rmoveto
          194 callgsubr
          172 callgsubr
        </CharString>
        <CharString name="dnsngleftdblbxd">
          145 callsubr
          1639 -864 -159 710 -160 -710 -159 710 210 callgsubr
        </CharString>
        <CharString name="dnsngrightdblbxd">
          1420 321 rmoveto
          228 callgsubr
          160 710 159 -864 -1639 205 callsubr
        </CharString>
        <CharString name="dnthreeeighthsblock">
          127 callsubr
          768 140 callsubr
        </CharString>
        <CharString name="dnthreequartersblock">
          127 callsubr
          1536 140 callsubr
        </CharString>
        <CharString name="dollar">
          708 638 rmoveto
          193 -50 81 -75 -131 vvcurveto
          -142 -109 -100 -165 -20 vhcurveto
          -119 715 rmoveto
          -181 49 -71 71 123 vvcurveto
          137 95 91 157 18 vhcurveto
          119 -520 rmoveto
          519 vlineto
          142 -19 95 -90 17 -134 rrcurveto
          158 hlineto
          -12 220 -162 151 -238 21 rrcurveto
          112 -119 -111 vlineto
          -254 -21 -162 -153 -226 vvcurveto
          -208 123 -125 272 -67 vhcurveto
          21 -5 rlineto
          -548 vlineto
          -164 19 -112 98 -16 144 rrcurveto
          -160 hlineto
          15 -237 173 -154 264 -20 rrcurveto
          -111 119 111 vlineto
          267 21 170 161 238 vvcurveto
          215 -117 119 -287 71 vhcurveto
          endchar
        </CharString>
        <CharString name="dotaccent">
          633 71 callsubr
          endchar
        </CharString>
        <CharString name="dotaccentcmb">
          633 71 callsubr
          endchar
        </CharString>
        <CharString name="dotaccentcmb.short">
          633 1640 rmoveto
          46 callsubr
        </CharString>
        <CharString name="dotbelowcmb">
          69 callgsubr
          endchar
        </CharString>
        <CharString name="dotlessi">
          1107 hmoveto
          -80 callgsubr
          endchar
        </CharString>
        <CharString name="dotlessj">
          -31 callsubr
          endchar
        </CharString>
        <CharString name="dotmacroncmb">
          963 1730 25 callgsubr
        </CharString>
        <CharString name="dotmacroncmb.short">
          83 callgsubr
          endchar
        </CharString>
        <CharString name="dzecyrillic">
          238 792 rmoveto
          52 callsubr
          vhcurveto
          161 -37 rlineto
          -104 callsubr
          hvcurveto
          endchar
        </CharString>
        <CharString name="dzhecyrillic">
          1082 1085 rmoveto
          -169 -940 -560 940 -169 -1085 370 -285 158 285 370 hlineto
          endchar
        </CharString>
        <CharString name="e">
          -106 callsubr
          endchar
        </CharString>
        <CharString name="eacute">
          727 -65 callsubr
          380 -1016 -99 callgsubr
        </CharString>
        <CharString name="ebreve">
          -106 callsubr
          -450 1117 107 callsubr
          -151 hlineto
          -114 197 callgsubr
          vhcurveto
          endchar
        </CharString>
        <CharString name="ecaron">
          741 93 callsubr
          385 -1016 -99 callgsubr
        </CharString>
        <CharString name="ecedilla">
          355 627 -37 callsubr
        </CharString>
        <CharString name="ecedillabreve">
          846 1589 rmoveto
          -115 197 callgsubr
          -131 -73 85 115 1 vhcurveto
          -153 hlineto
          -192 -52 callsubr
          192 vhcurveto
          -642 -962 -37 callsubr
        </CharString>
        <CharString name="ecircumflex">
          -106 callsubr
          -550 1343 -88 callgsubr
          endchar
        </CharString>
        <CharString name="ecircumflexacute">
          -106 callsubr
          -250 1380 144 callgsubr
          -189 hlineto
          -505 -345 -42 callgsubr
        </CharString>
        <CharString name="ecircumflexbelow">
          -106 callsubr
          -550 -446 rmoveto
          -274 -342 -63 callgsubr
          173 227 rlineto
          15 hlineto
          172 99 callsubr
        </CharString>
        <CharString name="ecircumflexdotbelow">
          -29 callgsubr
          -100 -2074 rmoveto
          86 callsubr
        </CharString>
        <CharString name="ecircumflexgrave">
          -106 callsubr
          5 1380 rmoveto
          -204 308 rlineto
          -189 hlineto
          230 -308 rlineto
          -392 -37 -42 callgsubr
        </CharString>
        <CharString name="ecircumflexhookabove">
          -29 callgsubr
          29 233 rmoveto
          208 callgsubr
          62 41 -6 callsubr
        </CharString>
        <CharString name="ecircumflextilde">
          -106 callsubr
          -593 1590 110 callgsubr
          -159 hhcurveto
          -141 -83 -107 -181 hvcurveto
          207 callgsubr
          25 45 62 hhcurveto
          43 -247 -42 callgsubr
        </CharString>
        <CharString name="ecyrillic">
          -10 callsubr
          endchar
        </CharString>
        <CharString name="edblgrave">
          707 1635 38 callgsubr
          382 -1016 -99 callgsubr
        </CharString>
        <CharString name="edieresis">
          -106 callsubr
          -652 1040 -22 callgsubr
        </CharString>
        <CharString name="edotaccent">
          -106 callsubr
          -450 1027 41 callgsubr
        </CharString>
        <CharString name="edotbelow">
          -106 callsubr
          -450 -731 rmoveto
          86 callsubr
        </CharString>
        <CharString name="efcyrillic">
          553 -359 rmoveto
          162 344 hlineto
          328 17 179 196 343 vvcurveto
          343 -180 198 -327 17 vhcurveto
          356 -162 -356 vlineto
          -327 -17 -181 -198 -343 vvcurveto
          -343 180 -196 328 -17 vhcurveto
          -345 556 rmoveto
          264 120 146 227 6 vhcurveto
          -831 vlineto
          -226 8 -121 145 262 vvcurveto
          505 416 rmoveto
          227 -6 119 -146 -264 vvcurveto
          -262 -120 -145 -226 -8 vhcurveto
          endchar
        </CharString>
        <CharString name="egrave">
          -106 callsubr
          -330 1016 -48 callgsubr
          endchar
        </CharString>
        <CharString name="ehookabove">
          -106 callsubr
          -618 1218 -14 callgsubr
          -12 -16 -35 vhcurveto
          endchar
        </CharString>
        <CharString name="eight">
          638 830 rmoveto
          -167 -111 98 148 147 111 98 167 167 110 -98 -147 -148 -110 -98 -167 hvcurveto
          -709 vmoveto
          -196 -135 114 165 165 135 114 196 196 135 -114 -165 -165 -135 -114 -196 hvcurveto
          -153 vmoveto
          300 208 172 246 182 -119 149 -175 37 hvcurveto
          16 vlineto
          147 41 89 123 157 vvcurveto
          225 -187 159 -263 -263 -188 -159 -225 -157 91 -124 145 -40 vhcurveto
          -16 vlineto
          -178 -43 -116 -146 -179 vvcurveto
          -246 209 -172 300 vhcurveto
          endchar
        </CharString>
        <CharString name="einvertedbreve">
          997 -12 callsubr
          153 hlineto
          115 122 callsubr
          -115 hvcurveto
          80 -978 -99 callgsubr
        </CharString>
        <CharString name="elcyrillic">
          898 938 rmoveto
          -938 168 1085 -727 vlineto
          -52 callgsubr
          25 320 3 70 rrcurveto
          endchar
        </CharString>
        <CharString name="ellipsis">
          228 -6 rmoveto
          78 42 60 110 110 -42 61 -78 -77 -42 -61 -110 -110 42 -60 77 hvcurveto
          405 hmoveto
          77 43 60 110 110 -43 61 -77 -77 -43 -61 -110 -110 43 -60 77 hvcurveto
          405 hmoveto
          77 42 60 110 110 -42 61 -77 -78 -42 -61 -110 -110 42 -60 78 hvcurveto
          endchar
        </CharString>
        <CharString name="emacron">
          -106 callsubr
          -120 1090 -80 callsubr
        </CharString>
        <CharString name="emacronacute">
          971 1369 -90 callgsubr
          388 299 rmoveto
          235 301 rlineto
          -185 hlineto
          -209 -301 rlineto
          386 -1388 -99 callgsubr
        </CharString>
        <CharString name="emacrongrave">
          -106 callsubr
          -349 1388 39 callgsubr
        </CharString>
        <CharString name="emcyrillic">
          256 815 rmoveto
          14 hlineto
          306 -782 rlineto
          116 hlineto
          303 777 rlineto
          14 hlineto
          -3 -810 rlineto
          143 1085 -181 hlineto
          -326 -842 rlineto
          -13 hlineto
          -326 224 callsubr
          endchar
        </CharString>
        <CharString name="emdash">
          112 callgsubr
        </CharString>
        <CharString name="encyrillic">
          110 callsubr
        </CharString>
        <CharString name="endash">
          112 callgsubr
        </CharString>
        <CharString name="eogonek">
          841 -430 rmoveto
          39 36 6 10 29 hvcurveto
          121 vlineto
          -5 -14 -26 -3 -27 hhcurveto
          -73 -50 43 64 69 44 59 133 109 hvcurveto
          89 75 55 82 15 80 rrcurveto
          147 callgsubr
          739 106 vlineto
          314 -166 187 -282 -276 -183 -188 -286 vhcurveto
          -163 vlineto
          -307 170 -181 286 34 40 7 9 22 vhcurveto
          -14 vlineto
          -87 -54 -48 -76 -81 vvcurveto
          -118 98 -83 139 vhcurveto
          -196 1389 rmoveto
          175 106 -125 -207 hvcurveto
          -571 hlineto
          208 109 124 181 vhcurveto
          endchar
        </CharString>
        <CharString name="epsilongreek">
          616 -20 rmoveto
          273 208 149 204 35 hvcurveto
          -173 hlineto
          -121 215 callgsubr
          54 122 107 96 64 164 hvcurveto
          156 141 -155 hlineto
          -160 -88 58 104 109 107 61 165 168 113 -51 -145 28 hvcurveto
          169 hlineto
          242 215 callsubr
          -131 -182 -116 57 -81 122 -39 hvcurveto
          -14 vlineto
          -134 -38 181 callgsubr
          endchar
        </CharString>
        <CharString name="epsilontonosgreek">
          616 -21 rmoveto
          273 208 150 204 35 hvcurveto
          -173 hlineto
          -122 215 callgsubr
          55 121 107 96 64 164 hvcurveto
          156 142 -155 hlineto
          -160 -88 57 104 109 107 62 165 168 113 -51 -146 28 hvcurveto
          169 hlineto
          243 215 callsubr
          -132 -182 -116 57 -81 122 -38 hvcurveto
          -14 vlineto
          -134 -39 181 callgsubr
          -46 1311 49 callsubr
          endchar
        </CharString>
        <CharString name="equal">
          1162 329 rmoveto
          165 -1058 -165 vlineto
          1058 456 rmoveto
          165 -1058 -165 vlineto
          endchar
        </CharString>
        <CharString name="ercyrillic">
          697 1103 rmoveto
          113 callgsubr
          hvcurveto
          -19 166 -167 -1451 173 534 18 hlineto
          -119 48 -42 callsubr
          endchar
        </CharString>
        <CharString name="ereversedcyrillic">
          321 749 -90 callsubr
        </CharString>
        <CharString name="escyrillic">
          1085 747 -1 callsubr
        </CharString>
        <CharString name="etagreek">
          407 hmoveto
          1 callgsubr
        </CharString>
        <CharString name="etatonosgreek">
          456 1290 49 callsubr
          -130 -1636 rmoveto
          1 callgsubr
        </CharString>
        <CharString name="eth">
          875 475 rmoveto
          -223 -103 -126 -184 -183 -103 126 223 vhcurveto
          61 vlineto
          220 102 123 184 184 103 -123 -220 vhcurveto
          192 941 rmoveto
          -312 -114 -50 58 -56 54 -61 48 rlinecurve
          -231 hlineto
          92 -66 81 -73 69 -77 -210 -77 rcurveline
          -123 vlineto
          287 105 77 -104 54 -109 29 -110 rlinecurve
          -11 hlineto
          86 -61 -90 43 -122 hhcurveto
          -259 -166 -188 -297 hvcurveto
          -58 vlineto
          -314 167 -179 294 294 168 180 317 vhcurveto
          109 vlineto
          242 -79 239 -141 199 vhcurveto
          237 87 rlineto
          endchar
        </CharString>
        <CharString name="etilde">
          -106 callsubr
          -592 1143 -3 callgsubr
          -60 vhcurveto
          -86 -43 155 -156 hhcurveto
          -141 -86 -33 callgsubr
        </CharString>
        <CharString name="etildebelow">
          -106 callsubr
          -582 -590 41 callsubr
        </CharString>
        <CharString name="exclam">
          534 101 callsubr
          16 -994 197 callsubr
          17 994 rlineto
          -100 -1462 rmoveto
          158 callsubr
          157 callsubr
          hvcurveto
          endchar
        </CharString>
        <CharString name="exclamdown">
          633 1112 rmoveto
          157 callsubr
          158 callsubr
          hvcurveto
          100 -1462 rmoveto
          -17 994 rlineto
          -166 hlineto
          -16 -994 rlineto
          endchar
        </CharString>
        <CharString name="f">
          33 callsubr
          endchar
        </CharString>
        <CharString name="fdotaccent">
          33 callsubr
          -265 362 rmoveto
          46 callsubr
        </CharString>
        <CharString name="fi">
          412 hmoveto
          937 552 -937 173 1082 -725 113 vlineto
          109 79 55 151 55 58 -4 -5 52 vhcurveto
          139 vlineto
          6 -37 -69 4 -59 hhcurveto
          -273 -130 -98 -210 hvcurveto
          -109 -233 -145 233 -937 vlineto
          802 1256 rmoveto
          80 61 60 79 80 -61 60 -80 -80 -61 -60 -80 -79 61 -60 80 hvcurveto
          endchar
        </CharString>
        <CharString name="figuredash">
          112 callgsubr
        </CharString>
        <CharString name="five">
          621 -29 rmoveto
          293 199 198 292 284 -186 199 -267 -127 -103 -45 -86 -71 hvcurveto
          -16 hlineto
          40 471 rlineto
          650 159 -789 hlineto
          -73 -815 rlineto
          167 hlineto
          102 57 107 59 129 hhcurveto
          185 125 -134 -198 -196 -124 -131 -186 -169 -129 104 151 -16 hvcurveto
          -170 hlineto
          -248 15 190 -166 269 hhcurveto
          endchar
        </CharString>
        <CharString name="fl">
          399 937 rmoveto
          362 145 -364 63 hlineto
          165 65 56 199 vhcurveto
          306 -1366 170 1503 -491 hlineto
          -292 -125 -103 -242 hvcurveto
          -76 -229 -145 229 -937 170 vlineto
          endchar
        </CharString>
        <CharString name="florin">
          277 -24 rmoveto
          221 130 102 247 34 hvcurveto
          56 401 rlineto
          380 148 -359 hlineto
          29 213 rlineto
          145 22 78 74 150 hhcurveto
          71 59 -5 -17 54 hvcurveto
          162 vlineto
          16 -60 -62 5 -84 hhcurveto
          -225 -141 -130 -238 -33 hvcurveto
          -31 -225 rlineto
          -348 -148 327 hlineto
          -55 -387 rlineto
          -146 -21 -81 -54 -127 hhcurveto
          -66 -67 13 23 -63 hvcurveto
          -172 vlineto
          -20 77 52 -7 83 hhcurveto
          endchar
        </CharString>
        <CharString name="four">
          802 hmoveto
          161 305 221 155 -220 410 -160 -412 -473 13 hlineto
          483 972 rlineto
          -180 hlineto
          -490 -995 rlineto
          -143 658 vlineto
          endchar
        </CharString>
        <CharString name="fraction">
          1266 1443 14 callgsubr
        </CharString>
        <CharString name="franc">
          851 355 rmoveto
          -366 291 572 157 -572 478 627 162 -803 -1088 -156 -129 156 -226 176 226 366 hlineto
          endchar
        </CharString>
        <CharString name="fullblock">
          127 callsubr
          2048 140 callsubr
        </CharString>
        <CharString name="g">
          -102 callgsubr
          endchar
        </CharString>
        <CharString name="gacute">
          690 -65 callsubr
          560 -32 callgsubr
        </CharString>
        <CharString name="gammagreek">
          492 -345 rmoveto
          168 320 hlineto
          294 388 117 268 257 vvcurveto
          67 -8 77 -13 53 vhcurveto
          -168 hlineto
          14 -60 7 -56 -81 vvcurveto
          -222 -85 -205 -214 -294 vhcurveto
          -14 hlineto
          -290 918 230 callsubr
          374 -1117 rlineto
          endchar
        </CharString>
        <CharString name="gbreve">
          -102 callgsubr
          3 1804 107 callsubr
          -152 hlineto
          -114 126 callsubr
          endchar
        </CharString>
        <CharString name="gcaron">
          704 1296 35 callsubr
          565 -32 callgsubr
        </CharString>
        <CharString name="gcircumflex">
          -102 callgsubr
          -97 2030 -6 callgsubr
        </CharString>
        <CharString name="gcommaaccent">
          -102 callgsubr
          45 2066 rmoveto
          -129 -361 rlineto
          176 hlineto
          110 361 rlineto
          endchar
        </CharString>
        <CharString name="gdotaccent">
          -102 callgsubr
          3 1714 41 callgsubr
        </CharString>
        <CharString name="gecyrillic">
          1121 1085 rmoveto
          -972 18 callsubr
          hlineto
          endchar
        </CharString>
        <CharString name="germandbls">
          395 hmoveto
          1108 vlineto
          150 83 81 152 141 98 -94 -139 -164 -86 -93 -151 vhcurveto
          -46 -174 56 hlineto
          209 120 -98 -171 -174 -95 -90 -183 -46 -51 5 10 -37 hvcurveto
          -158 vlineto
          -9 45 48 -4 51 hhcurveto
          269 179 164 251 206 -124 135 -212 25 hvcurveto
          18 vlineto
          138 46 93 134 153 vvcurveto
          235 -158 143 -257 -254 -154 -143 -239 vhcurveto
          -1114 vlineto
          endchar
        </CharString>
        <CharString name="geupturncyrillic">
          966 1361 rmoveto
          -276 -817 18 callsubr
          637 vlineto
          endchar
        </CharString>
        <CharString name="gjecyrillic">
          1027 1635 105 callsubr
          359 -211 rmoveto
          -972 18 callsubr
          hlineto
          endchar
        </CharString>
        <CharString name="glyph1">
          endchar
        </CharString>
        <CharString name="gmacron">
          -102 callgsubr
          333 1777 -80 callsubr
        </CharString>
        <CharString name="grave">
          856 99 callgsubr
          endchar
        </CharString>
        <CharString name="gravecmb">
          856 99 callgsubr
          endchar
        </CharString>
        <CharString name="gravecmb.short">
          602 114 callgsubr
          endchar
        </CharString>
        <CharString name="greater">
          890 649 rmoveto
          -18 vlineto
          -687 -381 rlineto
          -191 vlineto
          860 507 rlineto
          148 vlineto
          -860 507 rlineto
          -191 vlineto
          endchar
        </CharString>
        <CharString name="greaterequal">
          1125 109 rmoveto
          152 -983 -152 vlineto
          476 vmoveto
          -169 vlineto
          983 306 rlineto
          151 vlineto
          -983 307 rlineto
          -169 vlineto
          749 -205 rlineto
          -16 vlineto
          endchar
        </CharString>
        <CharString name="greekquestionmark">
          67 callsubr
        </CharString>
</ttFont>
